<?xml version="1.0" encoding="UTF-8"?><svg xmlns="http://www.w3.org/2000/svg" viewBox="0 0 85.66 114.18"><defs><style>.d{fill:#f6f6f6;}.e{fill:#6a6565;}.f{fill:#e9e5dd;}.g{fill:#f5b0b2;}.h{fill:#f39777;}.i{fill:#efefef;}.j{fill:#6b6666;}.k{fill:#757272;}.l{fill:rgba(232,228,225,.39);stroke:#a97155;}.l,.m,.n,.o{stroke-miterlimit:10;}.m{fill:#a97155;}.m,.n{stroke:#be8d63;}.n,.o{fill:none;}.o{stroke:#e9e5dd;stroke-width:.25px;}</style></defs><g id="a"/><g id="b"><g id="c"><rect class="m" x=".5" y="88.94" width="83.75" height="24.74"/><g><path class="j" d="M72.52,28.69c4.87-12.9,3.6-27,1.92-27-4.17,0-10.84,6.82-15.71,19.72s-5.73,24.99-1.92,27c3.81,2.01,10.84-6.82,15.71-19.72Z"/><ellipse class="i" cx="67.56" cy="25.19" rx="18.84" ry="4.34" transform="translate(23.27 82.09) rotate(-72.55)"/><path class="j" d="M27.07,22.06C22.71,8.69,13.48-1.34,12.12,.15c-2.84,3.09-3.52,13.14,.84,26.52s11.06,23.19,14.96,21.91c3.9-1.27,3.52-13.14-.84-26.52Z"/><ellipse class="i" cx="18.16" cy="25.02" rx="4.3" ry="19.18" transform="translate(-6.86 6.86) rotate(-18.06)"/><path class="e" d="M70.44,59.32c-.96,18.1-8.88,27.54-28.89,27.54s-28.53-9.44-28.53-27.54c0-11.05,7.51-27.51,28.71-27.51,22.19,0,29.4,14.5,28.71,27.51Z"/><path class="k" d="M63.92,64.68c0,24.34-9.55,22.88-21.33,22.88s-23.44,4.28-23.44-22.31c0-13.79,7.02-23.15,23.07-23.15s21.69,4.88,21.7,22.59Z"/><path class="g" d="M49.91,81.61c0,3.01-3.37,7.01-7.54,7.01s-7.54-4-7.54-7.01,3.37-2.5,7.54-2.5,7.54-.51,7.54,2.5Z"/><circle class="f" cx="35.05" cy="74.95" r="13.27"/><circle class="f" cx="49.63" cy="74.69" r="13.6"/><circle class="i" cx="48.97" cy="76.79" r="9.49"/><circle class="i" cx="35.54" cy="76.79" r="9.6"/><path class="h" d="M49.91,63.63c0,3.01-3.37,7.01-7.54,7.01s-7.54-4-7.54-7.01,3.37-2.5,7.54-2.5,7.54-.51,7.54,2.5Z"/><path class="i" d="M45.99,66.39c0,1.56-1.75,3.64-3.91,3.64s-3.91-2.07-3.91-3.64,1.75-1.3,3.91-1.3,3.91-.26,3.91,1.3Z"/><g><path class="f" d="M37.79,50.84c0,6.76-2.6,12.25-5.81,12.25s-5.81-5.48-5.81-12.25,2.9-9.61,6.11-9.61,5.51,2.84,5.51,9.61Z"/><path class="i" d="M37.34,52.98c0,7.56-2.68,10.11-5.82,10.11s-5.54-3.75-5.54-11.32,2.62-9.68,5.75-9.68,5.6,3.32,5.6,10.88Z"/><g><circle class="j" cx="31.74" cy="58.72" r="4.36"/><circle class="k" cx="31" cy="59.41" r="3.33"/><circle class="i" cx="32.63" cy="56.14" r=".67"/><circle class="i" cx="33.3" cy="57.12" r=".47"/></g></g><g><path class="f" d="M58.46,50.84c0,6.76-2.6,12.25-5.81,12.25s-5.81-5.48-5.81-12.25,2.9-9.61,6.11-9.61,5.51,2.84,5.51,9.61Z"/><path class="i" d="M58,52.98c0,7.56-2.68,10.11-5.82,10.11s-5.54-3.75-5.54-11.32,2.62-9.68,5.75-9.68,5.6,3.32,5.6,10.88Z"/><g><circle class="j" cx="52.41" cy="58.72" r="4.36"/><circle class="k" cx="51.67" cy="59.41" r="3.33"/><circle class="i" cx="53.29" cy="56.14" r=".67"/><circle class="i" cx="53.96" cy="57.12" r=".47"/></g></g><g><circle class="j" cx="17.09" cy="86.16" r="5.3"/><circle class="j" cx="23.66" cy="85.32" r="5.3"/><circle class="j" cx="30.61" cy="86.16" r="5.3"/><g><ellipse class="k" cx="18.06" cy="86.69" rx="4.54" ry="4.28"/><ellipse class="k" cx="23.69" cy="86.01" rx="4.54" ry="4.28"/><ellipse class="k" cx="29.64" cy="86.69" rx="4.54" ry="4.28"/></g></g><g><circle class="j" cx="53.99" cy="86.16" r="5.3"/><circle class="j" cx="60.57" cy="85.32" r="5.3"/><circle class="j" cx="67.52" cy="86.16" r="5.3"/><g><ellipse class="k" cx="54.96" cy="86.69" rx="4.54" ry="4.28"/><ellipse class="k" cx="60.6" cy="86.01" rx="4.54" ry="4.28"/><ellipse class="k" cx="66.55" cy="86.69" rx="4.54" ry="4.28"/></g></g><circle class="l" cx="26.74" cy="57.28" r="12.11"/><path class="n" d="M38.85,57.28l.5-.13c1.58-.4,3.23-.4,4.81,0l.5,.13"/><circle class="n" cx="27.67" cy="57.59" r="12.11"/><circle class="l" cx="56.77" cy="57.28" r="12.11"/><circle class="n" cx="55.9" cy="57.28" r="12.11"/><line class="o" x1="42.37" y1="70.64" x2="42.37" y2="85.06"/><path class="f" d="M54.21,72.14h0l-1.78,.8s-.01,.01,0,.02v.03s.02,0,.02,0h0l1.78-.8s.01-.01,0-.02v-.03s-.02,0-.02,0h0Z"/><path class="f" d="M54.21,74.1h0l-1.78,.8s-.01,.01,0,.02v.03s.02,0,.02,0h0l1.78-.8s.01-.01,0-.02v-.03s-.02,0-.02,0h0Z"/><path class="f" d="M54.21,75.94h0l-1.78,.8s-.01,.01,0,.02v.03s.02,0,.02,0h0l1.78-.8s.01-.01,0-.02v-.03s-.02,0-.02,0h0Z"/><path class="f" d="M54.38,77.85h0l-1.78,.8s-.01,.01,0,.02v.03s.02,0,.02,0h0l1.78-.8s.01-.01,0-.02v-.03s-.02,0-.02,0h0Z"/><path class="f" d="M47.76,75.95h0l-1.78,.8s-.01,.01,0,.02v.03s.02,0,.02,0h0l1.78-.8s.01-.01,0-.02v-.03s-.02,0-.02,0h0Z"/><path class="f" d="M47.76,77.9h0l-1.78,.8s-.01,.01,0,.02v.03s.02,0,.02,0h0l1.78-.8s.01-.01,0-.02v-.03s-.02,0-.02,0h0Z"/><path class="f" d="M47.76,79.75h0l-1.78,.8s-.01,.01,0,.02v.03s.02,0,.02,0h0l1.78-.8s.01-.01,0-.02v-.03s-.02,0-.02,0h0Z"/><path class="f" d="M47.94,81.65h0l-1.78,.8s-.01,.01,0,.02v.03s.02,0,.02,0h0l1.78-.8s.01-.01,0-.02v-.03s-.02,0-.02,0h0Z"/><path class="f" d="M37,76.74s-.01,0-.01,0v.03s-.01,.02,0,.02l1.78,.8h0s.01,0,.01,0v-.03s.01-.02,0-.02l-1.78-.8h0Z"/><path class="f" d="M37,78.69s-.01,0-.01,0v.03s-.01,.02,0,.02l1.78,.8h0s.01,0,.01,0v-.03s.01-.02,0-.02l-1.78-.8h0Z"/><path class="f" d="M37,80.54s-.01,0-.01,0v.03s-.01,.02,0,.02l1.78,.8h0s.01,0,.01,0v-.03s.01-.02,0-.02l-1.78-.8h0Z"/><path class="f" d="M36.82,82.44s-.01,0-.01,0v.03s-.01,.02,0,.02l1.78,.8h0s.01,0,.01,0v-.03s.01-.02,0-.02l-1.78-.8h0Z"/><path class="f" d="M30.2,72.52s-.01,0-.01,0v.03s-.01,.02,0,.02l1.78,.8h0s.01,0,.01,0v-.03s.01-.02,0-.02l-1.78-.8h0Z"/><path class="f" d="M30.2,74.47s-.01,0-.01,0v.03s-.01,.02,0,.02l1.78,.8h0s.01,0,.01,0v-.03s.01-.02,0-.02l-1.78-.8h0Z"/><path class="f" d="M30.2,76.32s-.01,0-.01,0v.03s-.01,.02,0,.02l1.78,.8h0s.01,0,.01,0v-.03s.01-.02,0-.02l-1.78-.8h0Z"/><path class="f" d="M30.03,78.22s-.01,0-.01,0v.03s-.01,.02,0,.02l1.78,.8h0s.01,0,.01,0v-.03s.01-.02,0-.02l-1.78-.8h0Z"/></g><g><path class="d" d="M9.31,102.34c0-.07,.03-.23,.08-.47,.05-.24,.12-.54,.21-.89s.19-.74,.3-1.17c.11-.43,.23-.87,.35-1.31,.12-.45,.24-.89,.37-1.32,.12-.43,.24-.83,.36-1.19,.11-.36,.21-.67,.3-.92,.08-.26,.15-.43,.2-.53,.03-.05,.06-.08,.1-.08,.07,0,.13,.03,.21,.08,.07,.05,.14,.12,.2,.19,.06,.08,.12,.16,.16,.24s.07,.15,.07,.22c0,.07-.03,.23-.1,.46-.07,.23-.15,.51-.26,.84-.11,.33-.23,.7-.37,1.1s-.27,.82-.41,1.24c.01,0,.03,0,.04,.01,.22-.04,.45-.15,.69-.31s.47-.37,.69-.61c.22-.24,.43-.51,.63-.79,.2-.29,.37-.57,.52-.86s.27-.57,.36-.83,.13-.49,.13-.68c0-.04,0-.11,.03-.19,.02-.08,.09-.12,.2-.12,.15,0,.27,.07,.37,.21,.1,.14,.15,.33,.15,.56,0,.31-.1,.66-.31,1.06-.21,.4-.47,.79-.8,1.17s-.69,.72-1.09,1.02-.81,.5-1.21,.6c.16,.15,.3,.34,.42,.58s.22,.5,.32,.76,.19,.54,.28,.81c.09,.27,.18,.52,.27,.74,.1,.22,.2,.4,.31,.54,.11,.14,.24,.21,.39,.21,.21,0,.42-.12,.63-.37,.22-.25,.42-.55,.62-.9,.19-.36,.37-.73,.53-1.12,.16-.39,.28-.73,.38-1.03h.24c-.06,.18-.13,.39-.21,.65-.08,.26-.18,.53-.29,.82-.11,.29-.24,.57-.38,.85s-.3,.54-.48,.76c-.18,.23-.37,.41-.59,.55-.22,.14-.46,.21-.72,.21-.29,0-.54-.09-.73-.26-.19-.17-.36-.39-.5-.66s-.25-.56-.33-.89c-.08-.32-.16-.63-.22-.93-.06-.3-.12-.56-.19-.8-.06-.23-.14-.4-.23-.48,0,0-.02,0-.03,0-.01,0-.02,0-.03,0-.1,.33-.2,.66-.3,.98-.1,.32-.18,.63-.25,.92s-.13,.56-.17,.8-.07,.45-.07,.62c0,.13-.01,.24-.03,.32-.02,.08-.07,.12-.14,.12-.06,0-.13-.02-.21-.05-.08-.03-.16-.08-.23-.13-.07-.05-.13-.11-.18-.18-.05-.07-.08-.13-.08-.2Z"/><path class="d" d="M15.27,101.09c0-.19,.02-.41,.06-.64s.09-.48,.15-.74,.12-.5,.19-.75c.07-.25,.13-.47,.19-.67,.06-.2,.12-.36,.16-.5,.04-.13,.07-.21,.08-.23,.01-.06,.04-.11,.08-.15,.04-.04,.09-.07,.15-.07,.04,0,.1,.02,.17,.07,.07,.05,.13,.1,.19,.17s.12,.13,.16,.19c.04,.06,.07,.11,.07,.14s-.04,.16-.12,.39c-.08,.23-.17,.51-.26,.84s-.18,.67-.26,1.04c-.08,.37-.12,.71-.12,1.02,0,.65,.18,.98,.53,.98,.16,0,.31-.06,.45-.17s.26-.25,.38-.43,.23-.38,.33-.59c.1-.22,.19-.43,.28-.65,.08-.22,.15-.42,.22-.6,.07-.19,.12-.34,.17-.45h.24c-.04,.14-.1,.32-.17,.53-.07,.21-.15,.44-.25,.68s-.21,.48-.33,.71c-.13,.24-.27,.45-.43,.64-.16,.19-.34,.35-.54,.47-.2,.12-.42,.18-.65,.18-.34,0-.61-.12-.8-.37-.19-.25-.29-.6-.29-1.04Zm1.9-5.75c.15,0,.28,.06,.37,.17,.09,.11,.14,.27,.14,.46,0,.23-.06,.43-.19,.6-.13,.17-.29,.25-.48,.25-.15,0-.28-.06-.38-.18-.1-.12-.15-.28-.15-.47,0-.23,.07-.42,.2-.58,.13-.16,.29-.24,.48-.24Z"/><path class="d" d="M17.87,101.71c0-.24,.03-.5,.09-.79,.06-.28,.13-.57,.21-.86,.08-.29,.17-.58,.26-.86s.16-.54,.22-.79c.04-.14,.08-.29,.12-.47s.09-.33,.14-.48,.1-.28,.15-.38c.05-.1,.1-.15,.15-.15,.07,0,.13,.02,.2,.07,.07,.05,.13,.11,.18,.18,.06,.07,.1,.15,.13,.23,.03,.08,.05,.15,.05,.21,0,.07-.03,.22-.09,.44-.06,.22-.13,.46-.21,.71-.08,.25-.16,.5-.23,.73-.07,.23-.12,.41-.15,.52h0c.04-.06,.09-.19,.18-.37,.08-.18,.18-.39,.29-.62,.11-.23,.23-.47,.37-.71s.28-.47,.42-.68c.14-.21,.29-.37,.43-.51,.14-.13,.28-.2,.41-.2,.15,0,.28,.07,.38,.2,.1,.14,.15,.31,.15,.51,0,.18-.02,.39-.07,.63-.05,.23-.11,.48-.18,.73-.07,.25-.15,.5-.24,.74-.09,.25-.17,.48-.25,.69-.08,.21-.15,.4-.21,.55-.06,.15-.1,.26-.11,.33,.03-.08,.09-.24,.18-.48,.09-.24,.2-.53,.34-.85,.14-.33,.29-.67,.47-1.02,.18-.36,.37-.68,.58-.98,.21-.3,.42-.54,.64-.74,.22-.19,.45-.29,.69-.29,.12,0,.23,.03,.33,.08,.1,.06,.19,.13,.26,.23s.13,.21,.16,.34,.04,.27,0,.41c-.04,.18-.12,.42-.24,.71-.12,.29-.25,.6-.37,.92-.13,.33-.24,.65-.34,.98-.1,.33-.15,.62-.15,.88s.05,.46,.16,.62c.11,.16,.24,.24,.41,.24s.32-.07,.48-.2,.31-.31,.46-.51c.15-.21,.28-.43,.41-.68,.12-.25,.24-.49,.33-.72,.1-.23,.17-.43,.23-.6s.09-.29,.11-.35h.25c-.04,.13-.09,.31-.16,.52s-.16,.45-.26,.7c-.11,.25-.23,.5-.37,.75-.14,.25-.29,.48-.47,.69-.17,.21-.36,.38-.57,.51-.21,.13-.43,.19-.67,.19-.32,0-.58-.11-.79-.33-.21-.22-.31-.5-.31-.84,0-.19,.03-.42,.1-.69,.07-.27,.14-.55,.23-.84,.09-.29,.18-.58,.26-.87,.09-.29,.16-.55,.21-.78,.05-.23,.07-.42,.06-.56-.01-.14-.08-.21-.19-.21-.14,0-.29,.11-.47,.32-.17,.21-.35,.47-.52,.78s-.34,.62-.5,.96c-.16,.33-.29,.63-.4,.87-.11,.25-.22,.49-.33,.73-.11,.23-.17,.47-.17,.71,0,.01-.01,.04-.04,.08-.03,.04-.07,.06-.13,.06-.07,0-.14-.01-.21-.04-.08-.03-.15-.07-.21-.12-.07-.05-.12-.11-.17-.18s-.07-.14-.07-.21c0-.12,.04-.3,.12-.54,.08-.24,.18-.51,.29-.8,.11-.29,.23-.59,.35-.9,.12-.31,.22-.59,.29-.84,.07-.25,.11-.45,.12-.62,0-.16-.04-.24-.15-.24-.07,0-.15,.06-.25,.18-.1,.12-.21,.27-.33,.46s-.24,.4-.36,.64c-.12,.24-.25,.48-.37,.72-.12,.24-.23,.47-.33,.7-.1,.22-.19,.42-.26,.59-.05,.13-.1,.28-.14,.45-.04,.17-.08,.32-.13,.47-.04,.15-.09,.27-.14,.37s-.1,.15-.16,.15c-.15,0-.28-.05-.39-.16-.11-.11-.17-.24-.17-.41Z"/><path class="d" d="M31.63,99.29c-.09,.32-.24,.61-.44,.88-.21,.27-.45,.52-.73,.75-.28,.23-.58,.44-.91,.64-.33,.19-.66,.38-.99,.54-.15,.29-.31,.57-.5,.84-.19,.26-.39,.5-.61,.7-.22,.2-.46,.36-.71,.48-.26,.12-.53,.18-.83,.18-.26,0-.47-.05-.63-.17-.16-.11-.24-.26-.24-.44s.08-.34,.24-.48c.16-.14,.37-.26,.62-.37s.53-.23,.84-.35c.3-.12,.6-.25,.9-.4,.13-.28,.25-.57,.36-.86s.2-.59,.28-.89c.08-.3,.14-.58,.18-.86s.07-.53,.07-.76-.03-.41-.09-.53-.14-.19-.25-.19c-.12,0-.24,.05-.38,.16-.14,.11-.27,.25-.41,.42-.14,.18-.27,.38-.41,.62-.13,.23-.25,.48-.37,.73-.11,.25-.22,.5-.31,.76-.09,.26-.17,.49-.23,.71-.04,.14-.08,.28-.13,.41-.05,.14-.07,.28-.07,.42v.04s-.03,.06-.08,.07c-.06,0-.1,.01-.14,.01-.12,0-.24-.06-.36-.18-.11-.12-.17-.24-.17-.36,0-.15,.03-.38,.09-.69s.14-.65,.24-1.04,.21-.8,.33-1.23c.12-.43,.25-.85,.36-1.25s.23-.77,.32-1.11c.1-.33,.18-.6,.24-.79,.01-.06,.04-.17,.08-.32s.09-.32,.14-.5c.05-.17,.1-.32,.16-.46,.06-.13,.11-.2,.16-.2,.06,0,.12,.03,.2,.08,.07,.05,.14,.11,.21,.18,.07,.07,.12,.15,.17,.23s.07,.15,.07,.21c0,.02-.04,.15-.1,.38-.07,.23-.16,.52-.26,.85s-.22,.7-.35,1.09c-.13,.39-.25,.76-.36,1.11-.11,.35-.21,.65-.29,.91-.08,.26-.14,.42-.16,.48,.06-.15,.15-.34,.28-.59,.13-.25,.28-.49,.46-.73s.37-.44,.59-.62c.22-.17,.46-.26,.7-.26,.13,0,.26,.04,.37,.12,.12,.08,.22,.19,.31,.33,.09,.14,.16,.3,.2,.49s.07,.39,.07,.61c0,.31-.05,.69-.15,1.16-.1,.46-.26,.93-.47,1.42,.28-.14,.55-.29,.83-.46s.52-.35,.75-.54c.23-.2,.44-.41,.62-.64s.32-.49,.42-.76h.24Zm-4.2,3.23c-.25,.11-.5,.21-.75,.3-.25,.09-.47,.18-.67,.26s-.36,.17-.48,.26c-.12,.09-.19,.19-.19,.3,0,.1,.04,.19,.13,.25,.09,.06,.2,.09,.34,.08,.29-.01,.57-.16,.85-.42,.28-.27,.54-.61,.77-1.03Z"/><path class="d" d="M35.69,99.29c-.15,.45-.33,.85-.54,1.22-.21,.37-.44,.68-.69,.95s-.54,.47-.84,.62c-.3,.15-.63,.22-.97,.22-.51,0-.91-.16-1.19-.47-.28-.31-.42-.76-.42-1.34,0-.4,.07-.78,.2-1.17,.13-.38,.3-.72,.52-1.01,.21-.29,.46-.53,.74-.71,.28-.18,.56-.27,.85-.27,.26,0,.49,.08,.67,.23,.18,.15,.27,.37,.27,.64s-.07,.53-.21,.78c-.14,.25-.33,.46-.56,.65-.23,.19-.48,.34-.76,.46-.28,.12-.55,.18-.83,.18-.02,.16-.03,.32-.03,.48,0,.79,.31,1.19,.93,1.19,.29,0,.57-.07,.84-.21,.27-.14,.52-.34,.75-.58,.23-.24,.44-.52,.62-.84,.18-.32,.32-.65,.42-1.01h.25Zm-3.72,.59c.2,.01,.41-.02,.63-.1s.43-.2,.62-.36c.19-.16,.35-.35,.47-.57,.12-.22,.19-.46,.19-.73,0-.32-.12-.47-.37-.47-.15,0-.31,.06-.47,.19-.16,.12-.31,.29-.45,.5-.14,.21-.26,.45-.37,.72-.11,.27-.19,.54-.25,.83Z"/><path class="d" d="M35.85,97.61c-.12-.1-.21-.21-.27-.35-.05-.14-.08-.28-.08-.43,0-.06,0-.14,.03-.25s.05-.21,.09-.31,.09-.19,.15-.26,.13-.11,.21-.11,.14,.05,.17,.15,.05,.22,.06,.36c0,.14,0,.27,0,.4,0,.13-.01,.22-.01,.28,.15,.11,.32,.18,.52,.2,.2,.02,.4,.05,.59,.07,.19,.03,.35,.07,.48,.14,.13,.07,.2,.21,.2,.42,0,.23-.05,.51-.16,.81-.11,.31-.23,.62-.36,.94-.13,.32-.25,.63-.36,.92s-.16,.55-.16,.75c0,.18,.04,.34,.13,.48,.09,.14,.19,.2,.31,.2,.21,0,.42-.11,.62-.33,.2-.22,.38-.48,.56-.78,.17-.3,.32-.6,.46-.91,.13-.31,.23-.55,.3-.73h.22c-.03,.12-.08,.29-.15,.5s-.17,.43-.28,.67c-.11,.23-.24,.47-.38,.71-.14,.24-.3,.46-.47,.65-.17,.19-.36,.35-.55,.48-.19,.12-.4,.19-.61,.19-.24,0-.44-.11-.61-.34-.16-.23-.24-.52-.24-.87,0-.26,.04-.55,.13-.85s.18-.59,.29-.88c.11-.29,.2-.55,.29-.8,.08-.25,.13-.45,.13-.62,0-.12-.04-.2-.12-.24-.08-.04-.17-.07-.27-.08-.11-.01-.21-.03-.32-.04-.11-.01-.19-.04-.26-.08,0,.07-.03,.21-.08,.42s-.1,.44-.17,.67c-.07,.23-.13,.43-.2,.61s-.14,.27-.2,.27c-.06,0-.09-.03-.09-.09,0-.01,.01-.07,.04-.17s.06-.2,.09-.31c.04-.11,.07-.22,.1-.32,.03-.1,.05-.17,.06-.2,.09-.31,.16-.64,.2-.98Z"/><path class="d" d="M38.91,100.54c0-.32,.04-.69,.11-1.12s.18-.87,.31-1.34c.13-.46,.29-.92,.47-1.37,.18-.45,.38-.86,.59-1.22s.44-.65,.67-.87c.23-.22,.47-.33,.71-.33s.41,.07,.51,.2c.11,.13,.16,.31,.16,.54,0,.31-.08,.69-.23,1.14-.15,.45-.35,.91-.6,1.38-.25,.47-.54,.92-.86,1.35-.32,.43-.66,.77-1,1.03-.01,.12-.03,.24-.04,.36-.01,.11-.02,.22-.02,.32,0,.22,.01,.43,.04,.62s.07,.36,.13,.51c.06,.14,.14,.26,.24,.34,.1,.08,.21,.13,.35,.13,.19,0,.39-.07,.6-.22,.21-.15,.42-.35,.62-.6,.21-.26,.4-.56,.58-.92,.18-.36,.33-.75,.47-1.17h.24c-.1,.34-.23,.7-.39,1.08s-.36,.73-.59,1.05c-.23,.32-.49,.58-.79,.79-.29,.21-.62,.31-.98,.31-.22,0-.41-.05-.58-.15s-.3-.24-.41-.42c-.11-.18-.19-.39-.25-.63-.05-.24-.08-.51-.08-.79Zm.91-.98c.29-.22,.57-.53,.85-.94,.28-.4,.53-.83,.75-1.28,.22-.45,.41-.89,.54-1.31,.14-.43,.21-.77,.21-1.03,0-.1-.02-.19-.06-.26-.04-.07-.07-.1-.11-.1-.1,0-.21,.07-.33,.22-.12,.15-.26,.34-.4,.59-.14,.25-.29,.54-.43,.87s-.28,.68-.41,1.04c-.13,.37-.25,.74-.36,1.12-.11,.38-.19,.74-.25,1.08Z"/><path class="d" d="M44.7,100.32l.04-.22c-.07,.15-.15,.34-.26,.57s-.23,.44-.37,.65-.29,.39-.46,.54-.34,.23-.52,.23c-.15,0-.28-.04-.39-.12s-.19-.17-.25-.29c-.06-.11-.11-.24-.13-.38-.03-.14-.04-.27-.04-.4,0-.42,.05-.84,.14-1.27,.09-.43,.21-.85,.35-1.25,.07-.19,.13-.39,.19-.59,.06-.21,.14-.4,.23-.57,.02-.06,.06-.09,.12-.09,.07,0,.13,.03,.21,.08,.07,.05,.14,.11,.2,.19s.11,.15,.15,.23c.04,.08,.06,.15,.06,.22,0,.03-.01,.08-.03,.17-.02,.08-.05,.17-.08,.26s-.06,.18-.09,.26-.05,.14-.06,.18c-.15,.42-.27,.84-.36,1.27-.09,.43-.14,.86-.14,1.28,0,.03,0,.07,0,.13s.01,.11,.02,.15c.01,.05,.03,.09,.06,.13,.03,.04,.06,.05,.1,.05,.13,0,.27-.1,.43-.31,.15-.21,.31-.46,.46-.75s.29-.61,.42-.95,.24-.62,.32-.87c.04-.19,.09-.37,.13-.55,.04-.18,.08-.34,.12-.48,.04-.14,.07-.26,.1-.34,.03-.08,.05-.13,.07-.13,.06,0,.12,.02,.19,.07,.07,.04,.13,.1,.19,.17s.11,.14,.15,.21c.04,.08,.06,.15,.06,.2,0,.08-.02,.18-.05,.29s-.06,.23-.09,.36c-.04,.16-.08,.37-.13,.62-.05,.25-.11,.52-.18,.82-.07,.3-.14,.62-.24,.96-.09,.34-.19,.67-.3,1.01,.18-.1,.38-.22,.61-.37,.22-.15,.44-.34,.65-.56,.21-.22,.41-.49,.61-.79,.19-.3,.35-.65,.47-1.03h.24c-.15,.43-.32,.81-.53,1.15-.21,.34-.43,.64-.67,.89s-.48,.46-.74,.63c-.25,.17-.5,.3-.73,.39-.14,.39-.3,.76-.47,1.12-.18,.36-.37,.67-.59,.95s-.47,.49-.74,.65-.57,.24-.89,.24c-.48,0-.71-.23-.71-.68,0-.28,.09-.54,.29-.8,.19-.25,.42-.48,.7-.69s.56-.39,.87-.53c.3-.14,.57-.24,.81-.3,.07-.21,.13-.42,.19-.62s.11-.39,.15-.57c.04-.18,.08-.33,.11-.47,.03-.14,.05-.25,.08-.34Zm-.6,2.23c-.19,.06-.42,.16-.7,.3-.28,.14-.54,.31-.79,.5s-.47,.39-.64,.61c-.18,.22-.26,.44-.26,.66,0,.26,.13,.4,.4,.4,.23,0,.45-.07,.65-.21,.2-.14,.38-.33,.54-.56s.31-.49,.45-.79c.13-.29,.25-.59,.36-.9Z"/><path class="d" d="M51.72,103.05c-.35,0-.67-.07-.95-.21s-.52-.35-.72-.62c-.2-.27-.35-.59-.45-.97-.1-.38-.15-.81-.15-1.3,0-.45,.05-.9,.14-1.35,.09-.44,.22-.86,.37-1.26,.16-.4,.34-.77,.56-1.12,.22-.34,.45-.64,.7-.89,.25-.25,.52-.45,.8-.59s.57-.21,.85-.21c.42,0,.76,.15,1.02,.43,.26,.29,.39,.67,.39,1.15,0,.15-.01,.29-.04,.42-.03,.14-.06,.26-.11,.36s-.1,.19-.16,.25-.12,.09-.19,.09c-.11,0-.17-.07-.17-.21,.2-.28,.3-.61,.3-.99,0-.32-.07-.59-.2-.8s-.31-.31-.52-.31c-.2,0-.41,.1-.64,.29-.23,.19-.45,.46-.68,.79s-.43,.71-.63,1.14-.36,.89-.49,1.36c-.19,.7-.29,1.36-.29,1.98,0,.73,.13,1.28,.4,1.64,.26,.36,.63,.54,1.09,.54,.29,0,.56-.06,.81-.19s.5-.29,.71-.49,.42-.43,.61-.68c.19-.25,.35-.5,.49-.75,.14-.25,.26-.49,.35-.71s.17-.41,.21-.56h.24c-.05,.19-.13,.42-.23,.68-.1,.26-.23,.53-.38,.81-.15,.27-.34,.55-.54,.82s-.44,.51-.69,.73c-.25,.21-.53,.38-.84,.52-.3,.13-.63,.2-.98,.2Z"/><path class="d" d="M54.7,100.31c0-.37,.05-.74,.16-1.08,.11-.35,.25-.65,.42-.92,.18-.26,.38-.48,.62-.64,.23-.16,.48-.24,.73-.24s.46,.09,.62,.27,.22,.46,.17,.84c.04-.18,.09-.33,.15-.45s.09-.22,.12-.3c.01-.06,.04-.11,.08-.15,.04-.04,.09-.07,.15-.07,.04,0,.1,.03,.16,.09,.06,.06,.12,.12,.18,.2s.11,.15,.15,.21c.04,.07,.06,.12,.06,.15,0,.02-.01,.07-.04,.17-.03,.1-.06,.22-.1,.36-.04,.14-.08,.29-.13,.46-.05,.16-.1,.33-.14,.48-.05,.16-.09,.3-.13,.43-.04,.13-.07,.23-.09,.31-.07,.23-.1,.46-.1,.67s.03,.4,.08,.56c.05,.16,.14,.29,.24,.38,.11,.1,.23,.14,.37,.14,.15,0,.29-.06,.42-.17s.25-.25,.37-.43c.11-.18,.22-.38,.32-.59s.19-.43,.27-.65c.08-.22,.15-.42,.22-.6,.07-.19,.12-.34,.17-.45h.24c-.04,.14-.1,.32-.17,.53-.07,.21-.15,.44-.24,.68s-.2,.48-.33,.71c-.12,.24-.26,.45-.42,.64-.15,.19-.32,.35-.51,.47-.19,.12-.39,.18-.61,.18s-.4-.05-.57-.16c-.17-.11-.31-.25-.42-.44-.11-.19-.18-.4-.22-.65-.04-.25-.03-.51,.02-.8-.08,.36-.23,.65-.46,.86-.23,.22-.51,.32-.84,.32-.64,0-.96-.45-.96-1.34Zm.88,.38c0,.22,.03,.38,.09,.47,.06,.1,.14,.14,.24,.14,.11,0,.23-.06,.36-.19,.13-.13,.25-.3,.37-.52,.12-.22,.24-.48,.35-.77,.11-.29,.2-.6,.27-.94,.01-.33,0-.58-.05-.74-.05-.16-.15-.24-.29-.24s-.3,.09-.46,.26c-.16,.18-.3,.4-.43,.67-.13,.27-.24,.57-.33,.9-.08,.33-.13,.65-.13,.96Z"/><path class="d" d="M64.81,99.29c-.15,.45-.35,.85-.59,1.22s-.51,.68-.81,.95-.61,.47-.95,.62c-.34,.15-.68,.22-1.02,.22-.52,0-.92-.16-1.2-.48-.28-.32-.42-.78-.42-1.38,0-.39,.06-.77,.18-1.14s.27-.71,.46-1c.19-.29,.4-.53,.64-.7,.24-.18,.49-.26,.74-.26,.15,0,.28,.03,.4,.09s.23,.14,.32,.24c.1,.1,.17,.22,.22,.36,.05,.14,.08,.28,.08,.45s-.02,.31-.07,.47c-.05,.16-.11,.3-.19,.42-.08,.12-.16,.23-.26,.31-.1,.08-.19,.12-.29,.12-.15,0-.23-.09-.23-.27,0-.12,.04-.21,.12-.27,.08-.06,.17-.11,.26-.16,.09-.05,.18-.12,.26-.21,.08-.09,.12-.23,.12-.43s-.04-.35-.13-.47c-.08-.12-.2-.19-.33-.19-.16,0-.33,.09-.5,.27-.17,.18-.33,.42-.47,.7s-.26,.6-.35,.95-.13,.69-.13,1.02c0,.87,.32,1.31,.97,1.31,.28,0,.57-.08,.87-.23,.3-.15,.59-.36,.86-.61,.27-.25,.51-.54,.73-.87s.37-.67,.47-1.02h.25Z"/><path class="d" d="M63.89,101.8c0-.1,.03-.3,.1-.59,.07-.29,.15-.62,.25-1,.1-.38,.22-.78,.34-1.22s.25-.85,.36-1.24c.12-.39,.22-.74,.31-1.05,.09-.31,.16-.53,.2-.66,.02-.07,.06-.19,.12-.38,.06-.19,.12-.39,.18-.58,.07-.2,.13-.38,.2-.53,.07-.16,.12-.24,.18-.24s.11,.02,.18,.07c.07,.05,.13,.1,.19,.17,.06,.06,.11,.13,.15,.19,.04,.07,.06,.12,.06,.15,0,.12-.04,.34-.11,.64-.07,.3-.17,.65-.29,1.04-.12,.39-.25,.81-.39,1.26-.14,.45-.28,.88-.42,1.29-.14,.41-.26,.79-.37,1.14-.11,.35-.19,.61-.24,.8,.07-.16,.18-.38,.31-.65s.28-.56,.46-.88,.36-.64,.56-.96c.2-.33,.41-.62,.62-.89,.22-.26,.43-.48,.66-.65,.22-.17,.43-.25,.64-.25s.36,.09,.48,.26c.11,.17,.17,.41,.17,.72,0,.26-.04,.53-.11,.82-.07,.29-.17,.59-.28,.9-.11,.3-.23,.61-.36,.91s-.25,.6-.36,.88c-.11,.28-.2,.55-.28,.79s-.11,.46-.11,.65,.04,.35,.12,.47,.17,.18,.29,.18c.14,0,.29-.08,.45-.25,.16-.17,.33-.38,.49-.64s.33-.55,.48-.87c.16-.32,.3-.63,.43-.93,.13-.3,.24-.58,.33-.83,.09-.25,.15-.44,.18-.56h.24c-.05,.17-.13,.4-.23,.69-.1,.29-.23,.6-.37,.94-.15,.33-.31,.67-.48,1.02-.18,.34-.36,.65-.56,.93-.19,.28-.39,.5-.59,.68-.2,.18-.4,.26-.6,.26-.12,0-.24-.04-.36-.12-.11-.08-.21-.18-.3-.3-.09-.12-.16-.27-.21-.44-.05-.17-.08-.35-.08-.54,0-.35,.08-.73,.23-1.15,.15-.41,.32-.83,.51-1.25,.19-.42,.36-.83,.51-1.23,.15-.4,.23-.76,.23-1.09,0-.28-.07-.42-.2-.42-.09,0-.21,.07-.36,.22-.14,.15-.3,.33-.46,.56s-.33,.48-.5,.75-.32,.54-.47,.8c-.15,.26-.27,.5-.38,.71-.11,.21-.18,.37-.23,.46-.03,.07-.08,.19-.17,.38s-.17,.38-.27,.57c-.1,.19-.2,.36-.3,.51-.1,.15-.18,.23-.25,.23-.17,0-.3-.07-.4-.21-.1-.14-.15-.29-.15-.43Z"/><path class="d" d="M69.7,101.09c0-.19,.02-.41,.06-.64s.09-.48,.15-.74,.12-.5,.19-.75c.07-.25,.13-.47,.19-.67,.06-.2,.12-.36,.16-.5,.04-.13,.07-.21,.08-.23,.01-.06,.04-.11,.08-.15,.04-.04,.09-.07,.15-.07,.04,0,.1,.02,.17,.07,.07,.05,.13,.1,.19,.17s.12,.13,.16,.19c.04,.06,.07,.11,.07,.14s-.04,.16-.12,.39c-.08,.23-.17,.51-.26,.84s-.18,.67-.26,1.04c-.08,.37-.12,.71-.12,1.02,0,.65,.18,.98,.53,.98,.16,0,.31-.06,.45-.17s.26-.25,.38-.43,.23-.38,.33-.59c.1-.22,.19-.43,.28-.65,.08-.22,.15-.42,.22-.6,.07-.19,.12-.34,.17-.45h.24c-.04,.14-.1,.32-.17,.53-.07,.21-.15,.44-.25,.68s-.21,.48-.33,.71c-.13,.24-.27,.45-.43,.64-.16,.19-.34,.35-.54,.47-.2,.12-.42,.18-.65,.18-.34,0-.61-.12-.8-.37-.19-.25-.29-.6-.29-1.04Zm1.9-5.75c.15,0,.28,.06,.37,.17,.09,.11,.14,.27,.14,.46,0,.23-.06,.43-.19,.6-.13,.17-.29,.25-.48,.25-.15,0-.28-.06-.38-.18-.1-.12-.15-.28-.15-.47,0-.23,.07-.42,.2-.58,.13-.16,.29-.24,.48-.24Z"/><path class="d" d="M72.47,100.31c0-.37,.05-.74,.16-1.08,.11-.35,.25-.65,.42-.92,.18-.26,.38-.48,.62-.64,.23-.16,.48-.24,.73-.24s.46,.09,.62,.27,.22,.46,.17,.84c.04-.18,.09-.33,.15-.45s.09-.22,.12-.3c.01-.06,.04-.11,.08-.15,.04-.04,.09-.07,.15-.07,.04,0,.1,.03,.16,.09,.06,.06,.12,.12,.18,.2s.11,.15,.15,.21c.04,.07,.06,.12,.06,.15,0,.02-.01,.07-.04,.17-.03,.1-.06,.22-.1,.36-.04,.14-.08,.29-.13,.46-.05,.16-.1,.33-.14,.48-.05,.16-.09,.3-.13,.43-.04,.13-.07,.23-.09,.31-.07,.23-.1,.46-.1,.67s.03,.4,.08,.56c.05,.16,.14,.29,.24,.38,.11,.1,.23,.14,.37,.14,.15,0,.29-.06,.42-.17s.25-.25,.37-.43c.11-.18,.22-.38,.32-.59s.19-.43,.27-.65c.08-.22,.15-.42,.22-.6,.07-.19,.12-.34,.17-.45h.24c-.04,.14-.1,.32-.17,.53-.07,.21-.15,.44-.24,.68s-.2,.48-.33,.71c-.12,.24-.26,.45-.42,.64-.15,.19-.32,.35-.51,.47-.19,.12-.39,.18-.61,.18s-.4-.05-.57-.16c-.17-.11-.31-.25-.42-.44-.11-.19-.18-.4-.22-.65-.04-.25-.03-.51,.02-.8-.08,.36-.23,.65-.46,.86-.23,.22-.51,.32-.84,.32-.64,0-.96-.45-.96-1.34Zm.88,.38c0,.22,.03,.38,.09,.47,.06,.1,.14,.14,.24,.14,.11,0,.23-.06,.36-.19,.13-.13,.25-.3,.37-.52,.12-.22,.24-.48,.35-.77,.11-.29,.2-.6,.27-.94,.01-.33,0-.58-.05-.74-.05-.16-.15-.24-.29-.24s-.3,.09-.46,.26c-.16,.18-.3,.4-.43,.67-.13,.27-.24,.57-.33,.9-.08,.33-.13,.65-.13,.96Z"/><path class="d" d="M37,109.2c0-.07,.01-.15,.03-.26,.02-.1,.05-.22,.08-.35,.03-.13,.07-.26,.11-.4,.04-.14,.08-.27,.12-.4,.04-.13,.08-.25,.11-.36,.04-.11,.07-.2,.09-.27,.04-.12,.08-.24,.11-.35s.06-.19,.08-.25c.02-.06,.03-.1,.04-.11,.01-.02,.02-.03,.04-.03,.02,0,.04,.01,.07,.03s.05,.04,.08,.07c.03,.03,.05,.06,.07,.09,.02,.03,.03,.06,.03,.08,0,.02-.01,.07-.03,.15s-.05,.16-.08,.26c-.03,.1-.07,.21-.11,.32-.04,.11-.07,.21-.1,.31,.07-.16,.14-.31,.22-.47,.08-.16,.16-.3,.24-.43s.17-.23,.26-.31c.09-.08,.18-.12,.27-.12,.11,0,.2,.06,.26,.18,.06,.12,.09,.31,.09,.56,0,.17-.01,.35-.03,.52s-.05,.34-.1,.5-.09,.32-.15,.47-.12,.29-.19,.42c.2-.05,.39-.16,.55-.31,.16-.16,.29-.36,.37-.59h.09c-.09,.28-.23,.51-.42,.69-.18,.18-.4,.28-.65,.32-.12,.2-.25,.35-.39,.47s-.29,.18-.43,.18c-.09,0-.17-.02-.23-.06-.06-.04-.09-.09-.09-.16,0-.05,.02-.11,.07-.16,.05-.06,.11-.11,.19-.16s.18-.09,.29-.12c.11-.03,.23-.06,.35-.06,.07-.14,.14-.3,.2-.47,.06-.17,.11-.35,.16-.53s.08-.37,.11-.56c.02-.19,.04-.36,.04-.53,0-.15-.02-.27-.05-.34s-.07-.11-.11-.11c-.04,0-.09,.03-.15,.09-.06,.06-.13,.14-.2,.25-.07,.1-.15,.23-.23,.36-.08,.14-.16,.29-.23,.44-.07,.16-.15,.32-.21,.48-.07,.17-.13,.33-.18,.49-.03,.09-.05,.19-.07,.28-.02,.09-.03,.17-.03,.24,0,.05,0,.08,0,.1,0,.02,0,.04,0,.06,0,.03-.03,.05-.06,.07s-.06,.03-.1,.03c-.1,0-.16-.07-.16-.22Zm1.24-.04c-.1,.01-.2,.03-.29,.06-.09,.03-.17,.06-.24,.1-.07,.04-.13,.08-.17,.12s-.06,.08-.06,.12,.02,.07,.06,.1c.04,.03,.08,.04,.14,.04,.09,0,.19-.05,.29-.15,.1-.1,.19-.23,.28-.4Z"/><path class="d" d="M41.04,108.15c-.06,.16-.12,.31-.19,.44s-.16,.24-.25,.34c-.09,.09-.19,.17-.3,.22-.11,.05-.23,.08-.35,.08-.18,0-.33-.06-.43-.17-.1-.11-.15-.27-.15-.48,0-.14,.02-.28,.07-.42,.05-.14,.11-.26,.18-.36s.16-.19,.26-.25c.1-.06,.2-.1,.3-.1,.09,0,.17,.03,.24,.08s.1,.13,.1,.23-.03,.19-.08,.28-.12,.17-.2,.23c-.08,.07-.17,.12-.27,.17s-.2,.06-.29,.06c0,.06-.01,.12-.01,.17,0,.28,.11,.43,.33,.43,.1,0,.2-.03,.3-.08,.1-.05,.19-.12,.27-.21,.08-.09,.16-.19,.22-.3s.11-.23,.15-.36h.09Zm-1.33,.21c.07,0,.15,0,.23-.04s.15-.07,.22-.13c.07-.06,.12-.13,.17-.2,.04-.08,.07-.17,.07-.26,0-.11-.04-.17-.13-.17-.05,0-.11,.02-.17,.07-.06,.04-.11,.1-.16,.18-.05,.07-.09,.16-.13,.26-.04,.1-.07,.19-.09,.3Z"/><path class="d" d="M42.58,108.15c-.03,.1-.08,.18-.13,.26-.06,.07-.12,.14-.19,.2-.07,.06-.14,.11-.22,.15s-.16,.08-.25,.11v.02c0,.08-.02,.16-.06,.24-.04,.08-.1,.14-.16,.2-.07,.06-.14,.1-.22,.14-.08,.03-.16,.05-.24,.05-.09,0-.16-.02-.22-.07-.06-.04-.08-.1-.08-.17,0-.05,.02-.1,.05-.14,.04-.04,.09-.07,.15-.1s.13-.06,.21-.08c.08-.03,.17-.05,.26-.08-.03-.08-.07-.14-.13-.21-.06-.06-.12-.12-.17-.19-.06-.06-.11-.13-.16-.21s-.07-.17-.07-.28c0-.09,.02-.18,.06-.26,.04-.08,.09-.15,.15-.21s.13-.1,.21-.14c.08-.03,.16-.05,.24-.05,.14,0,.24,.03,.31,.1,.07,.07,.1,.16,.1,.27,0,.05,0,.1-.02,.14-.01,.05-.03,.09-.05,.12-.02,.03-.04,.06-.07,.08-.03,.02-.06,.03-.09,.03-.06,0-.09-.03-.09-.1,0-.04,.01-.07,.03-.08,.02-.01,.05-.02,.08-.03s.05-.02,.08-.04c.02-.02,.03-.06,.03-.12,0-.07-.02-.14-.06-.19s-.11-.09-.2-.09c-.05,0-.1,.02-.15,.05-.05,.03-.09,.08-.12,.13-.03,.05-.06,.11-.08,.17s-.03,.12-.03,.18c0,.09,.02,.18,.07,.24,.04,.07,.1,.13,.15,.19,.06,.06,.11,.12,.17,.17,.05,.06,.09,.12,.12,.2,.15-.06,.29-.14,.42-.23,.13-.09,.23-.22,.3-.38h.09Zm-1.09,.81c-.08,.02-.15,.05-.22,.07-.07,.02-.13,.05-.18,.07-.05,.03-.09,.05-.12,.08s-.04,.06-.04,.1c0,.08,.05,.12,.16,.12,.12,0,.22-.04,.29-.11,.08-.08,.12-.17,.12-.29v-.02s0-.01,0-.02Z"/><path class="d" d="M42.36,108.79c0-.07,0-.15,.02-.23,.01-.09,.03-.17,.05-.26,.02-.09,.04-.18,.07-.27,.02-.09,.05-.17,.07-.24s.04-.13,.06-.18c.02-.05,.03-.07,.03-.08,0-.02,.01-.04,.03-.06,.01-.02,.03-.02,.05-.02,.02,0,.04,0,.06,.03s.05,.04,.07,.06c.02,.02,.04,.05,.06,.07,.02,.02,.02,.04,.02,.05s-.01,.06-.04,.14c-.03,.08-.06,.18-.09,.3s-.07,.24-.09,.37c-.03,.13-.04,.25-.04,.36,0,.23,.06,.35,.19,.35,.06,0,.11-.02,.16-.06,.05-.04,.09-.09,.14-.16,.04-.06,.08-.13,.12-.21,.04-.08,.07-.15,.1-.23,.03-.08,.06-.15,.08-.22s.04-.12,.06-.16h.09s-.04,.11-.06,.19c-.03,.08-.05,.16-.09,.24s-.07,.17-.12,.26c-.05,.09-.1,.16-.16,.23s-.12,.12-.19,.17c-.07,.04-.15,.06-.23,.06-.12,0-.22-.04-.29-.13-.07-.09-.1-.21-.1-.37Zm.68-2.06c.05,0,.1,.02,.13,.06,.03,.04,.05,.1,.05,.16,0,.08-.02,.16-.07,.21s-.1,.09-.17,.09c-.05,0-.1-.02-.14-.06-.04-.04-.05-.1-.05-.17,0-.08,.02-.15,.07-.21,.05-.06,.11-.09,.17-.09Z"/><path class="d" d="M43.07,110.06c0-.1,.03-.19,.1-.29,.07-.09,.15-.17,.25-.25,.1-.07,.2-.14,.31-.19s.21-.09,.29-.11c.02-.08,.05-.15,.07-.22,.02-.07,.04-.14,.05-.2,.02-.06,.03-.12,.04-.17,0-.05,.02-.09,.03-.12-.02,.05-.05,.11-.08,.18-.03,.07-.06,.13-.1,.19-.04,.06-.09,.11-.14,.16-.05,.04-.11,.06-.18,.06-.1,0-.19-.05-.26-.15s-.11-.23-.11-.4c0-.14,.02-.28,.06-.42,.04-.14,.09-.26,.16-.37,.07-.11,.14-.2,.23-.26,.09-.07,.17-.1,.27-.1,.1,0,.18,.03,.23,.09,.05,.06,.08,.13,.09,.22,0-.03,.01-.05,.02-.08,0-.02,0-.04,.01-.06,0-.01,0-.03,.01-.05,0-.02,.01-.05,.02-.07s.02-.05,.03-.06,.02-.03,.03-.03c.02,0,.04,0,.07,.02,.02,.02,.05,.04,.07,.06,.02,.02,.04,.05,.05,.08,.01,.03,.02,.05,.02,.07,0,.03,0,.06-.02,.1s-.02,.08-.03,.13c-.01,.06-.03,.14-.05,.23-.02,.09-.04,.2-.07,.32-.03,.12-.06,.24-.09,.37-.03,.13-.07,.26-.12,.39,.07-.03,.14-.08,.22-.13,.08-.05,.16-.12,.23-.2,.08-.08,.15-.17,.22-.28,.07-.11,.12-.23,.17-.37h.09c-.05,.15-.12,.29-.19,.41-.08,.12-.16,.23-.24,.32-.09,.09-.18,.17-.27,.23-.09,.06-.18,.11-.27,.14-.05,.14-.11,.27-.17,.4-.06,.13-.14,.24-.21,.34-.08,.1-.17,.17-.26,.23-.09,.06-.2,.09-.31,.09-.17,0-.26-.08-.26-.24Zm.92-.74c-.07,.02-.15,.06-.25,.11s-.19,.11-.28,.18c-.09,.07-.17,.14-.23,.22s-.09,.16-.09,.24c0,.09,.05,.14,.14,.14,.08,0,.16-.03,.23-.08,.07-.05,.14-.12,.2-.2,.06-.08,.11-.18,.16-.28,.05-.1,.09-.21,.13-.32Zm.31-1.34c0-.06,0-.11,0-.16,0-.05-.02-.1-.04-.14-.02-.04-.04-.08-.07-.1-.03-.03-.06-.04-.1-.04-.05,0-.1,.03-.15,.1-.05,.07-.1,.16-.14,.27-.04,.11-.07,.23-.1,.36s-.04,.26-.04,.39c0,.23,.04,.34,.12,.34,.04,0,.09-.03,.14-.1,.05-.06,.09-.15,.14-.25,.04-.1,.09-.21,.13-.33,.04-.12,.07-.23,.11-.34Z"/><path class="d" d="M45.13,109.23s-.05,0-.07-.02c-.02-.01-.04-.03-.06-.05-.02-.02-.03-.05-.04-.07-.01-.03-.02-.06-.02-.08s0-.08,.02-.15c.01-.07,.03-.15,.05-.23s.04-.18,.07-.28c.03-.1,.06-.19,.08-.27,.02-.06,.04-.11,.06-.18s.04-.12,.05-.18,.03-.1,.04-.15c.01-.04,.02-.07,.02-.08,.01-.04,.03-.07,.06-.07,.02,0,.04,0,.07,.03s.05,.04,.07,.06c.02,.03,.04,.05,.06,.08s.02,.06,.02,.08c0,.02,0,.06-.02,.11-.01,.05-.03,.11-.05,.18-.02,.07-.04,.14-.07,.22-.03,.08-.05,.15-.08,.22-.02,.07-.05,.14-.07,.2-.02,.06-.04,.11-.05,.14,.02-.03,.05-.1,.09-.19,.04-.09,.1-.2,.16-.32,.06-.12,.13-.25,.2-.38s.15-.25,.22-.36c.08-.11,.15-.2,.22-.27s.14-.11,.2-.11c.03,0,.06,0,.09,.03s.05,.04,.07,.07c.02,.03,.04,.07,.05,.11,.01,.04,.02,.08,.02,.13,0,.08-.02,.18-.06,.3s-.08,.24-.13,.37c-.05,.13-.09,.26-.13,.39s-.06,.24-.06,.34c0,.12,.02,.21,.05,.27,.03,.06,.1,.09,.2,.09,.06,0,.13-.02,.19-.04,.07-.03,.13-.09,.2-.17,.07-.08,.13-.19,.2-.33,.07-.14,.13-.31,.19-.53h.09c-.05,.22-.12,.41-.2,.56-.08,.15-.16,.27-.24,.37-.09,.09-.17,.16-.26,.2-.09,.04-.18,.06-.26,.06-.14,0-.24-.05-.31-.15-.06-.1-.09-.23-.09-.39,0-.08,.01-.17,.03-.27,.02-.1,.05-.2,.07-.31s.06-.21,.09-.31c.03-.1,.06-.19,.08-.27,.02-.08,.03-.14,.04-.19,0-.05,0-.07-.03-.07s-.06,.03-.12,.08c-.05,.05-.11,.12-.17,.21-.06,.09-.13,.19-.19,.3-.07,.11-.13,.23-.19,.34s-.12,.23-.17,.34c-.05,.11-.09,.21-.12,.3h0c-.06,.18-.12,.27-.19,.27Z"/><path class="d" d="M48.92,108.15c-.03,.1-.08,.18-.13,.26-.06,.07-.12,.14-.19,.2-.07,.06-.14,.11-.22,.15s-.16,.08-.25,.11v.02c0,.08-.02,.16-.06,.24-.04,.08-.1,.14-.16,.2-.07,.06-.14,.1-.22,.14-.08,.03-.16,.05-.24,.05-.09,0-.16-.02-.22-.07-.06-.04-.08-.1-.08-.17,0-.05,.02-.1,.05-.14,.04-.04,.09-.07,.15-.1s.13-.06,.21-.08c.08-.03,.17-.05,.26-.08-.03-.08-.07-.14-.13-.21-.06-.06-.12-.12-.17-.19-.06-.06-.11-.13-.16-.21s-.07-.17-.07-.28c0-.09,.02-.18,.06-.26,.04-.08,.09-.15,.15-.21s.13-.1,.21-.14c.08-.03,.16-.05,.24-.05,.14,0,.24,.03,.31,.1,.07,.07,.1,.16,.1,.27,0,.05,0,.1-.02,.14-.01,.05-.03,.09-.05,.12-.02,.03-.04,.06-.07,.08-.03,.02-.06,.03-.09,.03-.06,0-.09-.03-.09-.1,0-.04,.01-.07,.03-.08,.02-.01,.05-.02,.08-.03s.05-.02,.08-.04c.02-.02,.03-.06,.03-.12,0-.07-.02-.14-.06-.19s-.11-.09-.2-.09c-.05,0-.1,.02-.15,.05-.05,.03-.09,.08-.12,.13-.03,.05-.06,.11-.08,.17s-.03,.12-.03,.18c0,.09,.02,.18,.07,.24,.04,.07,.1,.13,.15,.19,.06,.06,.11,.12,.17,.17,.05,.06,.09,.12,.12,.2,.15-.06,.29-.14,.42-.23,.13-.09,.23-.22,.3-.38h.09Zm-1.09,.81c-.08,.02-.15,.05-.22,.07-.07,.02-.13,.05-.18,.07-.05,.03-.09,.05-.12,.08s-.04,.06-.04,.1c0,.08,.05,.12,.16,.12,.12,0,.22-.04,.29-.11,.08-.08,.12-.17,.12-.29v-.02s0-.01,0-.02Z"/></g></g></g></svg>