<?xml version="1.0" encoding="UTF-8"?><svg xmlns="http://www.w3.org/2000/svg" viewBox="0 0 43.54 58.25"><defs><style>.d{fill:#6a6565;}.e{fill:#e9e5dd;}.f{fill:#f5b0b2;}.g{fill:#f39777;}.h{fill:#efefef;}.i{fill:#6b6666;}.j{fill:#757272;}.k{fill:rgba(232,228,225,.39);stroke:#a97155;}.k,.l,.m,.n{stroke-miterlimit:10;}.l{fill:#a97155;}.l,.m{stroke:#be8d63;}.m,.n{fill:none;}.n{stroke:#e9e5dd;stroke-width:.25px;}</style></defs><g id="a"/><g id="b"><g id="c"><g><rect class="l" x=".5" y="45.18" width="42.54" height="12.57"/><g><path class="i" d="M37.08,14.57c2.47-6.55,1.83-13.71,.98-13.71-2.12,0-5.51,3.46-7.98,10.02s-2.91,12.69-.98,13.71,5.51-3.46,7.98-10.02Z"/><ellipse class="h" cx="34.56" cy="12.8" rx="9.57" ry="2.21" transform="translate(11.99 41.93) rotate(-72.55)"/><path class="i" d="M14,11.21C11.78,4.41,7.1-.68,6.4,.07c-1.44,1.57-1.79,6.68,.43,13.47s5.62,11.78,7.6,11.13,1.79-6.68-.43-13.47Z"/><ellipse class="h" cx="9.47" cy="12.71" rx="2.19" ry="9.74" transform="translate(-3.47 3.56) rotate(-18.06)"/><path class="d" d="M36.03,30.13c-.49,9.2-4.51,13.99-14.68,13.99s-14.49-4.79-14.49-13.99c0-5.61,3.81-13.97,14.58-13.97,11.27,0,14.93,7.36,14.58,13.97Z"/><path class="j" d="M32.71,32.86c0,12.36-4.85,11.62-10.84,11.62s-11.9,2.17-11.9-11.33c0-7,3.57-11.76,11.72-11.76s11.02,2.48,11.02,11.47Z"/><path class="f" d="M25.6,41.45c0,1.53-1.71,3.56-3.83,3.56s-3.83-2.03-3.83-3.56,1.71-1.27,3.83-1.27,3.83-.26,3.83,1.27Z"/><circle class="e" cx="18.05" cy="38.07" r="6.74"/><circle class="e" cx="25.45" cy="37.94" r="6.91"/><circle class="h" cx="25.12" cy="39.01" r="4.82"/><circle class="h" cx="18.3" cy="39.01" r="4.87"/><path class="g" d="M25.6,32.32c0,1.53-1.71,3.56-3.83,3.56s-3.83-2.03-3.83-3.56,1.71-1.27,3.83-1.27,3.83-.26,3.83,1.27Z"/><path class="h" d="M23.61,33.73c0,.79-.89,1.85-1.98,1.85s-1.98-1.05-1.98-1.85,.89-.66,1.98-.66,1.98-.13,1.98,.66Z"/><g><path class="e" d="M19.44,25.83c0,3.44-1.32,6.22-2.95,6.22s-2.95-2.79-2.95-6.22,1.47-4.88,3.1-4.88,2.8,1.44,2.8,4.88Z"/><path class="h" d="M19.21,26.91c0,3.84-1.36,5.14-2.95,5.14s-2.81-1.91-2.81-5.75,1.33-4.92,2.92-4.92,2.84,1.68,2.84,5.53Z"/><g><circle class="i" cx="16.37" cy="29.83" r="2.22"/><circle class="j" cx="15.99" cy="30.18" r="1.69"/><circle class="h" cx="16.82" cy="28.52" r=".34"/><circle class="h" cx="17.16" cy="29.01" r=".24"/></g></g><g><path class="e" d="M29.94,25.83c0,3.44-1.32,6.22-2.95,6.22s-2.95-2.79-2.95-6.22,1.47-4.88,3.1-4.88,2.8,1.44,2.8,4.88Z"/><path class="h" d="M29.71,26.91c0,3.84-1.36,5.14-2.95,5.14s-2.81-1.91-2.81-5.75,1.33-4.92,2.92-4.92,2.84,1.68,2.84,5.53Z"/><g><circle class="i" cx="26.87" cy="29.83" r="2.22"/><circle class="j" cx="26.49" cy="30.18" r="1.69"/><circle class="h" cx="27.32" cy="28.52" r=".34"/><circle class="h" cx="27.66" cy="29.01" r=".24"/></g></g><g><circle class="i" cx="8.92" cy="43.77" r="2.69"/><circle class="i" cx="12.27" cy="43.34" r="2.69"/><circle class="i" cx="15.79" cy="43.77" r="2.69"/><g><ellipse class="j" cx="9.42" cy="44.03" rx="2.31" ry="2.18"/><ellipse class="j" cx="12.28" cy="43.69" rx="2.31" ry="2.18"/><ellipse class="j" cx="15.3" cy="44.03" rx="2.31" ry="2.18"/></g></g><g><circle class="i" cx="27.67" cy="43.77" r="2.69"/><circle class="i" cx="31.01" cy="43.34" r="2.69"/><circle class="i" cx="34.54" cy="43.77" r="2.69"/><g><ellipse class="j" cx="28.17" cy="44.03" rx="2.31" ry="2.18"/><ellipse class="j" cx="31.03" cy="43.69" rx="2.31" ry="2.18"/><ellipse class="j" cx="34.05" cy="44.03" rx="2.31" ry="2.18"/></g></g><circle class="k" cx="13.83" cy="29.09" r="6.15"/><path class="m" d="M19.98,29.09l.26-.06c.8-.2,1.64-.2,2.44,0l.26,.06"/><circle class="m" cx="14.3" cy="29.25" r="6.15"/><circle class="k" cx="29.08" cy="29.09" r="6.15"/><circle class="m" cx="28.64" cy="29.09" r="6.15"/><line class="n" x1="21.77" y1="35.88" x2="21.77" y2="43.21"/><path class="e" d="M27.78,36.65h0l-.89,.4s-.01,.01,0,.02c0,0,0,0,.01,0h0l.89-.4s.01-.01,0-.02c0,0,0,0-.01,0h0Z"/><path class="e" d="M27.78,37.64h0l-.89,.4s-.01,.01,0,.02c0,0,0,0,.01,0h0l.89-.4s.01-.01,0-.02c0,0,0,0-.01,0h0Z"/><path class="e" d="M27.78,38.58h0l-.89,.4s-.01,.01,0,.02c0,0,0,0,.01,0h0l.89-.4s.01-.01,0-.02c0,0,0,0-.01,0h0Z"/><path class="e" d="M27.87,39.55h0l-.89,.4s-.01,.01,0,.02c0,0,0,0,.01,0h0l.89-.4s.01-.01,0-.02c0,0,0,0-.01,0h0Z"/><path class="e" d="M24.5,38.58h0l-.89,.4s-.01,.01,0,.02c0,0,0,0,.01,0h0l.89-.4s.01-.01,0-.02c0,0,0,0-.01,0h0Z"/><path class="e" d="M24.5,39.57h0l-.89,.4s-.01,.01,0,.02c0,0,0,0,.01,0h0l.89-.4s.01-.01,0-.02c0,0,0,0-.01,0h0Z"/><path class="e" d="M24.5,40.51h0l-.89,.4s-.01,.01,0,.02c0,0,0,0,.01,0h0l.89-.4s.01-.01,0-.02c0,0,0,0-.01,0h0Z"/><path class="e" d="M24.59,41.48h0l-.89,.4s-.01,.01,0,.02c0,0,0,0,.01,0h0l.89-.4s.01-.01,0-.02c0,0,0,0-.01,0h0Z"/><path class="e" d="M19.04,38.98s-.01,0-.01,0c0,0,0,.02,0,.02l.89,.4h0s.01,0,.01,0c0,0,0-.02,0-.02l-.89-.4h0Z"/><path class="e" d="M19.04,39.98s-.01,0-.01,0c0,0,0,.02,0,.02l.89,.4h0s.01,0,.01,0c0,0,0-.02,0-.02l-.89-.4h0Z"/><path class="e" d="M19.04,40.91s-.01,0-.01,0c0,0,0,.02,0,.02l.89,.4h0s.01,0,.01,0c0,0,0-.02,0-.02l-.89-.4h0Z"/><path class="e" d="M18.95,41.88s-.01,0-.01,0c0,0,0,.02,0,.02l.89,.4h0s.01,0,.01,0c0,0,0-.02,0-.02l-.89-.4h0Z"/><path class="e" d="M15.59,36.84s-.01,0-.01,0c0,0,0,.02,0,.02l.89,.4h0s.01,0,.01,0c0,0,0-.02,0-.02l-.89-.4h0Z"/><path class="e" d="M15.59,37.83s-.01,0-.01,0c0,0,0,.02,0,.02l.89,.4h0s.01,0,.01,0c0,0,0-.02,0-.02l-.89-.4h0Z"/><path class="e" d="M15.59,38.77s-.01,0-.01,0c0,0,0,.02,0,.02l.89,.4h0s.01,0,.01,0c0,0,0-.02,0-.02l-.89-.4h0Z"/><path class="e" d="M15.5,39.74s-.01,0-.01,0c0,0,0,.02,0,.02l.89,.4h0s.01,0,.01,0c0,0,0-.02,0-.02l-.89-.4h0Z"/></g></g></g></g></svg>