<?xml version="1.0" encoding="UTF-8"?><svg xmlns="http://www.w3.org/2000/svg" viewBox="0 0 57.03 57.03"><defs><style>.d{fill:#f6f6f6;}.e{fill:#c5e1cb;}</style></defs><g id="a"/><g id="b"><g id="c"><rect class="e" x="0" y="0" width="57.03" height="57.03" rx="22.44" ry="22.44"/><g><path class="d" d="M34.32,18.82c2.15,0,3.89,1.75,3.89,3.89v11.3c0,2.15-1.75,3.89-3.89,3.89h-11.3c-2.15,0-3.89-1.75-3.89-3.89v-11.3c0-2.15,1.75-3.89,3.89-3.89h11.3m0-2h-11.3c-3.24,0-5.89,2.65-5.89,5.89v11.3c0,3.24,2.65,5.89,5.89,5.89h11.3c3.24,0,5.89-2.65,5.89-5.89v-11.3c0-3.24-2.65-5.89-5.89-5.89h0Z"/><path class="d" d="M28.51,23.22c2.92,0,5.3,2.38,5.3,5.3s-2.38,5.3-5.3,5.3-5.3-2.38-5.3-5.3,2.38-5.3,5.3-5.3m0-2c-4.03,0-7.3,3.27-7.3,7.3s3.27,7.3,7.3,7.3,7.3-3.27,7.3-7.3-3.27-7.3-7.3-7.3h0Z"/><circle class="d" cx="34.73" cy="21.22" r="1.36"/></g></g></g></svg>