<?xml version="1.0" encoding="UTF-8"?><svg xmlns="http://www.w3.org/2000/svg" viewBox="0 0 89.8 114.18"><defs><style>.d{fill:#f6f6f6;}.e{fill:#6a6565;}.f{fill:#e9e5dd;}.g{fill:#f5b0b2;}.h{fill:#f39777;}.i{fill:#efefef;}.j{fill:#6b6666;}.k{fill:#757272;}.l{fill:rgba(232,228,225,.39);stroke:#a97155;}.l,.m,.n,.o{stroke-miterlimit:10;}.m{fill:#a97155;}.m,.n{stroke:#be8d63;}.n,.o{fill:none;}.o{stroke:#e9e5dd;stroke-width:.25px;}</style></defs><g id="a"/><g id="b"><g id="c"><g><rect class="m" x=".5" y="88.94" width="83.75" height="24.74"/><g><path class="j" d="M72.52,28.69c4.87-12.9,3.6-27,1.92-27-4.17,0-10.84,6.82-15.71,19.72s-5.73,24.99-1.92,27c3.81,2.01,10.84-6.82,15.71-19.72Z"/><ellipse class="i" cx="67.56" cy="25.19" rx="18.84" ry="4.34" transform="translate(23.27 82.09) rotate(-72.55)"/><path class="j" d="M27.07,22.06C22.71,8.69,13.48-1.34,12.12,.15c-2.84,3.09-3.52,13.14,.84,26.52s11.06,23.19,14.96,21.91c3.9-1.27,3.52-13.14-.84-26.52Z"/><ellipse class="i" cx="18.16" cy="25.02" rx="4.3" ry="19.18" transform="translate(-6.86 6.86) rotate(-18.06)"/><path class="e" d="M70.44,59.32c-.96,18.1-8.88,27.54-28.89,27.54s-28.53-9.44-28.53-27.54c0-11.05,7.51-27.51,28.71-27.51,22.19,0,29.4,14.5,28.71,27.51Z"/><path class="k" d="M63.92,64.68c0,24.34-9.55,22.88-21.33,22.88s-23.44,4.28-23.44-22.31c0-13.79,7.02-23.15,23.07-23.15s21.69,4.88,21.7,22.59Z"/><path class="g" d="M49.91,81.61c0,3.01-3.37,7.01-7.54,7.01s-7.54-4-7.54-7.01,3.37-2.5,7.54-2.5,7.54-.51,7.54,2.5Z"/><circle class="f" cx="35.05" cy="74.95" r="13.27"/><circle class="f" cx="49.63" cy="74.69" r="13.6"/><circle class="i" cx="48.97" cy="76.79" r="9.49"/><circle class="i" cx="35.54" cy="76.79" r="9.6"/><path class="h" d="M49.91,63.63c0,3.01-3.37,7.01-7.54,7.01s-7.54-4-7.54-7.01,3.37-2.5,7.54-2.5,7.54-.51,7.54,2.5Z"/><path class="i" d="M45.99,66.39c0,1.56-1.75,3.64-3.91,3.64s-3.91-2.07-3.91-3.64,1.75-1.3,3.91-1.3,3.91-.26,3.91,1.3Z"/><g><path class="f" d="M37.79,50.84c0,6.76-2.6,12.25-5.81,12.25s-5.81-5.48-5.81-12.25,2.9-9.61,6.11-9.61,5.51,2.84,5.51,9.61Z"/><path class="i" d="M37.34,52.98c0,7.56-2.68,10.11-5.82,10.11s-5.54-3.75-5.54-11.32,2.62-9.68,5.75-9.68,5.6,3.32,5.6,10.88Z"/><g><circle class="j" cx="31.74" cy="58.72" r="4.36"/><circle class="k" cx="31" cy="59.41" r="3.33"/><circle class="i" cx="32.63" cy="56.14" r=".67"/><circle class="i" cx="33.3" cy="57.12" r=".47"/></g></g><g><path class="f" d="M58.46,50.84c0,6.76-2.6,12.25-5.81,12.25s-5.81-5.48-5.81-12.25,2.9-9.61,6.11-9.61,5.51,2.84,5.51,9.61Z"/><path class="i" d="M58,52.98c0,7.56-2.68,10.11-5.82,10.11s-5.54-3.75-5.54-11.32,2.62-9.68,5.75-9.68,5.6,3.32,5.6,10.88Z"/><g><circle class="j" cx="52.41" cy="58.72" r="4.36"/><circle class="k" cx="51.67" cy="59.41" r="3.33"/><circle class="i" cx="53.29" cy="56.14" r=".67"/><circle class="i" cx="53.96" cy="57.12" r=".47"/></g></g><g><circle class="j" cx="17.09" cy="86.16" r="5.3"/><circle class="j" cx="23.66" cy="85.32" r="5.3"/><circle class="j" cx="30.61" cy="86.16" r="5.3"/><g><ellipse class="k" cx="18.06" cy="86.69" rx="4.54" ry="4.28"/><ellipse class="k" cx="23.69" cy="86.01" rx="4.54" ry="4.28"/><ellipse class="k" cx="29.64" cy="86.69" rx="4.54" ry="4.28"/></g></g><g><circle class="j" cx="53.99" cy="86.16" r="5.3"/><circle class="j" cx="60.57" cy="85.32" r="5.3"/><circle class="j" cx="67.52" cy="86.16" r="5.3"/><g><ellipse class="k" cx="54.96" cy="86.69" rx="4.54" ry="4.28"/><ellipse class="k" cx="60.6" cy="86.01" rx="4.54" ry="4.28"/><ellipse class="k" cx="66.55" cy="86.69" rx="4.54" ry="4.28"/></g></g><circle class="l" cx="26.74" cy="57.28" r="12.11"/><path class="n" d="M38.85,57.28l.5-.13c1.58-.4,3.23-.4,4.81,0l.5,.13"/><circle class="n" cx="27.67" cy="57.59" r="12.11"/><circle class="l" cx="56.77" cy="57.28" r="12.11"/><circle class="n" cx="55.9" cy="57.28" r="12.11"/><line class="o" x1="42.37" y1="70.64" x2="42.37" y2="85.06"/><path class="f" d="M54.21,72.14h0l-1.78,.8s-.01,.01,0,.02v.03s.02,0,.02,0h0l1.78-.8s.01-.01,0-.02v-.03s-.02,0-.02,0h0Z"/><path class="f" d="M54.21,74.1h0l-1.78,.8s-.01,.01,0,.02v.03s.02,0,.02,0h0l1.78-.8s.01-.01,0-.02v-.03s-.02,0-.02,0h0Z"/><path class="f" d="M54.21,75.94h0l-1.78,.8s-.01,.01,0,.02v.03s.02,0,.02,0h0l1.78-.8s.01-.01,0-.02v-.03s-.02,0-.02,0h0Z"/><path class="f" d="M54.38,77.85h0l-1.78,.8s-.01,.01,0,.02v.03s.02,0,.02,0h0l1.78-.8s.01-.01,0-.02v-.03s-.02,0-.02,0h0Z"/><path class="f" d="M47.76,75.95h0l-1.78,.8s-.01,.01,0,.02v.03s.02,0,.02,0h0l1.78-.8s.01-.01,0-.02v-.03s-.02,0-.02,0h0Z"/><path class="f" d="M47.76,77.9h0l-1.78,.8s-.01,.01,0,.02v.03s.02,0,.02,0h0l1.78-.8s.01-.01,0-.02v-.03s-.02,0-.02,0h0Z"/><path class="f" d="M47.76,79.75h0l-1.78,.8s-.01,.01,0,.02v.03s.02,0,.02,0h0l1.78-.8s.01-.01,0-.02v-.03s-.02,0-.02,0h0Z"/><path class="f" d="M47.94,81.65h0l-1.78,.8s-.01,.01,0,.02v.03s.02,0,.02,0h0l1.78-.8s.01-.01,0-.02v-.03s-.02,0-.02,0h0Z"/><path class="f" d="M37,76.74s-.01,0-.01,0v.03s-.01,.02,0,.02l1.78,.8h0s.01,0,.01,0v-.03s.01-.02,0-.02l-1.78-.8h0Z"/><path class="f" d="M37,78.69s-.01,0-.01,0v.03s-.01,.02,0,.02l1.78,.8h0s.01,0,.01,0v-.03s.01-.02,0-.02l-1.78-.8h0Z"/><path class="f" d="M37,80.54s-.01,0-.01,0v.03s-.01,.02,0,.02l1.78,.8h0s.01,0,.01,0v-.03s.01-.02,0-.02l-1.78-.8h0Z"/><path class="f" d="M36.82,82.44s-.01,0-.01,0v.03s-.01,.02,0,.02l1.78,.8h0s.01,0,.01,0v-.03s.01-.02,0-.02l-1.78-.8h0Z"/><path class="f" d="M30.2,72.52s-.01,0-.01,0v.03s-.01,.02,0,.02l1.78,.8h0s.01,0,.01,0v-.03s.01-.02,0-.02l-1.78-.8h0Z"/><path class="f" d="M30.2,74.47s-.01,0-.01,0v.03s-.01,.02,0,.02l1.78,.8h0s.01,0,.01,0v-.03s.01-.02,0-.02l-1.78-.8h0Z"/><path class="f" d="M30.2,76.32s-.01,0-.01,0v.03s-.01,.02,0,.02l1.78,.8h0s.01,0,.01,0v-.03s.01-.02,0-.02l-1.78-.8h0Z"/><path class="f" d="M30.03,78.22s-.01,0-.01,0v.03s-.01,.02,0,.02l1.78,.8h0s.01,0,.01,0v-.03s.01-.02,0-.02l-1.78-.8h0Z"/></g><g><path class="d" d="M5.76,101.83c-.16,0-.28-.05-.37-.14-.09-.1-.14-.21-.14-.36v-5.89c0-.14,.05-.26,.15-.36,.1-.1,.23-.14,.38-.14s.27,.05,.36,.14,.14,.21,.14,.36v5.89c0,.14-.06,.26-.15,.36-.09,.1-.22,.14-.37,.14Zm4.34-6.92c.13,0,.24,.05,.32,.16,.09,.11,.13,.22,.13,.33s-.05,.22-.15,.31l-4.24,4.04-.06-1.17,3.59-3.48c.12-.12,.26-.19,.4-.19Zm-.05,6.93c-.15,0-.27-.06-.36-.19l-2.45-3.16,.76-.77,2.5,3.26c.08,.1,.12,.22,.12,.34,0,.16-.06,.28-.18,.37s-.25,.14-.38,.14Z"/><path class="d" d="M12.08,95.96c-.19,0-.33-.03-.41-.1-.09-.07-.13-.19-.13-.35v-.16c0-.16,.05-.28,.14-.34s.23-.1,.41-.1c.2,0,.34,.03,.42,.1,.09,.07,.13,.18,.13,.34v.16c0,.17-.04,.29-.13,.35-.09,.07-.23,.1-.43,.1Zm.5,5.36c0,.14-.05,.26-.14,.36s-.21,.14-.35,.14-.26-.05-.35-.14-.14-.21-.14-.36v-4.21c0-.14,.05-.26,.14-.36,.1-.1,.21-.14,.35-.14,.14,0,.26,.05,.35,.14s.14,.21,.14,.36v4.21Z"/><path class="d" d="M16.51,96.56c.49,0,.86,.12,1.12,.36,.26,.24,.44,.56,.52,.97l-.16-.05,.07-.16c.08-.17,.21-.34,.39-.52s.38-.32,.62-.43c.24-.11,.5-.17,.78-.17,.45,0,.8,.1,1.05,.29,.25,.19,.42,.45,.52,.78,.1,.32,.15,.69,.15,1.09v2.61c0,.14-.05,.26-.14,.36s-.21,.14-.35,.14-.26-.05-.35-.14-.14-.21-.14-.36v-2.6c0-.23-.03-.44-.09-.63s-.17-.34-.33-.46c-.15-.11-.37-.17-.63-.17s-.49,.06-.69,.17c-.2,.12-.35,.27-.46,.46-.11,.19-.17,.4-.17,.63v2.6c0,.14-.05,.26-.14,.36s-.21,.14-.35,.14-.26-.05-.35-.14c-.09-.1-.14-.21-.14-.36v-2.61c0-.23-.03-.44-.09-.62-.06-.19-.17-.34-.32-.45-.15-.11-.36-.17-.63-.17s-.48,.06-.68,.17c-.2,.12-.35,.27-.46,.45s-.16,.4-.16,.62v2.61c0,.14-.05,.26-.14,.36-.09,.1-.21,.14-.35,.14-.14,0-.26-.05-.36-.14-.1-.1-.14-.21-.14-.36v-4.17c0-.14,.05-.26,.14-.36,.09-.1,.21-.14,.36-.14s.25,.05,.35,.14c.1,.1,.14,.21,.14,.36v.58l-.19,.11c.05-.14,.12-.29,.23-.44,.1-.15,.24-.29,.4-.41s.34-.23,.54-.31c.2-.08,.41-.12,.64-.12Z"/><path class="d" d="M25.57,96.53c.46,0,.87,.12,1.23,.34,.36,.23,.64,.55,.85,.95,.21,.4,.32,.87,.32,1.39s-.11,.99-.32,1.4c-.21,.41-.49,.73-.85,.96-.35,.23-.75,.35-1.2,.35-.25,0-.49-.04-.71-.12-.22-.08-.42-.19-.59-.31-.17-.13-.31-.26-.42-.41s-.18-.28-.2-.39l.27-.14v.86c0,.14-.05,.26-.14,.35-.09,.1-.21,.15-.35,.15-.14,0-.26-.05-.36-.14-.1-.1-.14-.21-.14-.36v-6.36c0-.14,.05-.26,.14-.35,.09-.1,.21-.15,.36-.15s.25,.05,.35,.15c.1,.1,.14,.22,.14,.35v2.77l-.16-.09c.02-.12,.08-.25,.19-.39,.1-.13,.24-.26,.4-.39,.16-.12,.34-.22,.55-.3,.21-.08,.42-.11,.65-.11Zm-.11,.92c-.32,0-.59,.08-.82,.23-.23,.15-.42,.36-.55,.63-.13,.27-.2,.57-.2,.91s.07,.65,.2,.92c.13,.27,.31,.49,.55,.64,.23,.16,.51,.24,.82,.24s.58-.08,.81-.24c.23-.16,.41-.37,.54-.65,.13-.28,.2-.58,.2-.92s-.07-.65-.2-.91c-.13-.27-.31-.48-.54-.63s-.5-.23-.81-.23Z"/><path class="d" d="M31.48,101.93c-.54,0-1.02-.11-1.42-.34-.4-.23-.71-.54-.93-.94s-.33-.85-.33-1.36c0-.58,.12-1.07,.35-1.48,.23-.41,.54-.73,.91-.94s.77-.33,1.19-.33c.32,0,.63,.06,.92,.19,.29,.13,.55,.3,.77,.53s.41,.49,.54,.8c.13,.31,.2,.64,.21,1,0,.13-.06,.24-.16,.32-.1,.09-.21,.13-.34,.13h-3.83l-.24-.84h3.7l-.19,.18v-.25c-.02-.23-.1-.43-.24-.6-.14-.17-.31-.31-.51-.4-.2-.1-.41-.15-.63-.15-.2,0-.39,.03-.57,.09-.18,.06-.34,.16-.48,.3-.14,.14-.25,.32-.33,.55-.08,.23-.12,.51-.12,.84,0,.36,.08,.68,.23,.94,.15,.27,.35,.48,.61,.62,.26,.15,.54,.22,.85,.22,.24,0,.44-.02,.59-.07,.15-.05,.29-.11,.39-.18s.2-.14,.28-.21c.1-.06,.19-.09,.29-.09,.12,0,.23,.04,.31,.12,.08,.08,.12,.18,.12,.29,0,.14-.07,.28-.22,.39-.18,.17-.42,.32-.73,.45-.31,.13-.64,.2-.98,.2Z"/><path class="d" d="M35.29,101.83c-.14,0-.26-.05-.36-.14-.1-.1-.14-.21-.14-.36v-4.17c0-.14,.05-.26,.14-.36,.09-.1,.21-.14,.36-.14s.25,.05,.35,.14c.1,.1,.14,.21,.14,.36v1.1l-.1-.42c.05-.18,.13-.35,.24-.51,.11-.16,.24-.3,.39-.41,.15-.12,.32-.21,.51-.28,.19-.07,.38-.1,.59-.1,.17,0,.32,.05,.44,.14s.19,.21,.19,.34c0,.18-.05,.31-.14,.39-.09,.08-.19,.12-.31,.12-.1,0-.19-.02-.29-.06-.09-.04-.2-.06-.33-.06-.14,0-.28,.04-.42,.11s-.28,.18-.39,.32-.21,.31-.28,.5c-.07,.19-.1,.4-.1,.64v2.36c0,.14-.05,.26-.14,.36-.09,.1-.21,.14-.35,.14Z"/><path class="d" d="M39.98,101.33c0,.14-.05,.26-.14,.36s-.21,.14-.35,.14-.25-.05-.35-.14c-.09-.1-.14-.21-.14-.36v-6.28c0-.14,.05-.26,.15-.36,.1-.1,.22-.14,.35-.14,.14,0,.26,.05,.35,.14s.13,.21,.13,.36v6.28Z"/><path class="d" d="M45.15,96.61c.14,0,.26,.05,.35,.14,.09,.1,.14,.21,.14,.36v4.23c0,.58-.11,1.05-.33,1.41s-.52,.62-.89,.79c-.37,.17-.79,.25-1.25,.25-.24,0-.47-.02-.71-.06-.24-.04-.43-.1-.58-.17-.16-.07-.27-.16-.33-.27-.07-.11-.08-.23-.03-.35,.05-.16,.12-.26,.24-.32,.11-.06,.23-.06,.34-.01,.11,.05,.26,.1,.44,.18,.18,.07,.39,.11,.63,.11,.32,0,.59-.05,.81-.16,.22-.1,.39-.27,.51-.49,.12-.22,.18-.51,.18-.87v-.68l.16,.25c-.11,.21-.24,.39-.42,.53-.17,.14-.38,.26-.61,.33-.23,.08-.49,.12-.77,.12-.36,0-.67-.08-.93-.24s-.46-.38-.6-.67c-.14-.29-.21-.61-.21-.98v-2.92c0-.14,.05-.26,.14-.36,.09-.1,.21-.14,.36-.14s.25,.05,.35,.14c.1,.1,.14,.21,.14,.36v2.66c0,.43,.09,.75,.29,.95s.47,.3,.85,.3c.25,0,.47-.05,.65-.16,.18-.1,.33-.25,.43-.44,.11-.19,.16-.4,.16-.65v-2.66c0-.14,.05-.26,.14-.36s.21-.14,.35-.14Z"/><path class="d" d="M54.75,95.33c.14,.07,.23,.18,.25,.33,.02,.15-.02,.29-.12,.41-.07,.1-.16,.16-.28,.17-.11,0-.23-.01-.34-.07-.18-.1-.38-.18-.6-.24s-.43-.09-.66-.09c-.37,0-.71,.06-1.01,.19-.3,.12-.56,.3-.77,.52-.22,.22-.38,.49-.5,.8-.11,.31-.17,.65-.17,1.02,0,.41,.06,.78,.19,1.1,.12,.32,.3,.59,.52,.81,.22,.22,.48,.38,.78,.49s.62,.16,.97,.16c.22,0,.44-.03,.65-.08,.21-.05,.42-.13,.61-.24,.12-.06,.23-.08,.34-.06,.11,.02,.21,.07,.29,.17,.1,.14,.14,.28,.12,.42-.03,.14-.11,.25-.25,.31-.16,.09-.34,.17-.54,.24-.2,.07-.4,.12-.6,.16-.2,.04-.41,.05-.62,.05-.47,0-.92-.08-1.34-.24-.42-.16-.8-.39-1.12-.69s-.58-.67-.77-1.11c-.19-.44-.29-.94-.29-1.51,0-.5,.09-.97,.27-1.4,.18-.43,.42-.8,.74-1.11s.69-.56,1.12-.73c.43-.17,.89-.26,1.4-.26,.31,0,.62,.04,.92,.12,.3,.08,.58,.19,.83,.33Z"/><path class="d" d="M60.25,96.57c.14,0,.26,.05,.35,.14,.09,.1,.14,.22,.14,.36v4.25c0,.14-.05,.26-.14,.36s-.21,.14-.35,.14-.26-.05-.35-.14-.14-.21-.14-.36v-.71l.21,.04c0,.11-.05,.24-.14,.39-.09,.15-.22,.29-.39,.42s-.36,.24-.58,.33c-.22,.09-.46,.13-.72,.13-.45,0-.86-.12-1.22-.35-.36-.23-.65-.55-.86-.96-.21-.41-.32-.87-.32-1.39s.11-1,.32-1.4c.21-.4,.49-.72,.85-.95,.36-.23,.75-.34,1.19-.34,.28,0,.54,.05,.78,.14,.24,.09,.45,.21,.62,.35,.18,.14,.31,.3,.41,.46s.15,.31,.15,.46l-.3,.03v-.9c0-.14,.05-.26,.14-.35,.09-.1,.21-.15,.35-.15Zm-2.01,4.45c.31,0,.58-.08,.82-.24,.24-.16,.42-.37,.55-.64,.13-.27,.2-.58,.2-.91s-.07-.64-.2-.91c-.13-.27-.32-.49-.55-.64s-.51-.23-.82-.23-.57,.08-.8,.23c-.23,.15-.42,.37-.55,.63-.13,.27-.2,.57-.2,.92s.07,.64,.2,.91c.13,.27,.32,.49,.55,.64,.23,.16,.5,.24,.8,.24Z"/><path class="d" d="M64.42,96.53c.35,0,.67,.04,.95,.11,.28,.08,.49,.18,.64,.31,.15,.13,.23,.29,.23,.47,0,.11-.03,.21-.1,.31s-.16,.14-.29,.14c-.1,0-.18-.01-.24-.04-.06-.03-.12-.07-.17-.12-.05-.05-.11-.09-.19-.13-.07-.05-.18-.08-.33-.1s-.27-.03-.37-.03c-.35,0-.65,.08-.9,.24-.25,.16-.45,.37-.59,.63-.14,.27-.21,.57-.21,.91s.07,.65,.21,.92c.14,.27,.33,.48,.58,.64,.25,.16,.53,.24,.86,.24,.19,0,.35-.01,.48-.04,.13-.03,.23-.07,.32-.11,.11-.06,.19-.12,.26-.18,.07-.06,.17-.09,.29-.09,.14,0,.25,.04,.33,.13,.08,.09,.11,.2,.11,.33,0,.14-.09,.28-.26,.42-.17,.13-.41,.24-.69,.33-.29,.08-.61,.13-.96,.13-.51,0-.95-.12-1.32-.35s-.67-.56-.88-.96c-.21-.41-.31-.87-.31-1.38s.11-.98,.33-1.38c.22-.4,.52-.72,.9-.96s.83-.35,1.33-.35Z"/><path class="d" d="M69.84,96.56c.45,0,.8,.1,1.05,.29,.25,.19,.42,.45,.53,.78,.1,.33,.15,.69,.15,1.08v2.61c0,.14-.05,.26-.14,.36-.09,.1-.21,.14-.35,.14-.14,0-.26-.05-.36-.14-.1-.1-.14-.21-.14-.36v-2.61c0-.23-.03-.44-.09-.62s-.17-.34-.32-.45c-.15-.11-.36-.17-.64-.17-.26,0-.48,.06-.68,.17-.2,.12-.35,.27-.46,.45s-.16,.4-.16,.62v2.61c0,.14-.05,.26-.14,.36-.09,.1-.21,.14-.35,.14-.14,0-.26-.05-.36-.14-.1-.1-.14-.21-.14-.36v-6.28c0-.14,.05-.26,.14-.36,.09-.1,.21-.14,.36-.14s.25,.05,.35,.14c.1,.1,.14,.21,.14,.36v2.69l-.18,.1c.05-.14,.12-.29,.23-.44,.11-.15,.24-.29,.4-.41,.16-.12,.34-.23,.54-.3,.2-.08,.41-.11,.63-.11Z"/><path class="d" d="M73.36,95.96c-.19,0-.33-.03-.41-.1-.09-.07-.13-.19-.13-.35v-.16c0-.16,.05-.28,.14-.34s.23-.1,.41-.1c.2,0,.34,.03,.42,.1,.09,.07,.13,.18,.13,.34v.16c0,.17-.04,.29-.13,.35-.09,.07-.23,.1-.43,.1Zm.5,5.36c0,.14-.05,.26-.14,.36s-.21,.14-.35,.14-.26-.05-.35-.14-.14-.21-.14-.36v-4.21c0-.14,.05-.26,.14-.36,.1-.1,.21-.14,.35-.14,.14,0,.26,.05,.35,.14s.14,.21,.14,.36v4.21Z"/><path class="d" d="M79.44,96.57c.14,0,.26,.05,.35,.14,.09,.1,.14,.22,.14,.36v4.25c0,.14-.05,.26-.14,.36s-.21,.14-.35,.14-.26-.05-.35-.14-.14-.21-.14-.36v-.71l.21,.04c0,.11-.05,.24-.14,.39-.09,.15-.22,.29-.39,.42s-.36,.24-.58,.33c-.22,.09-.46,.13-.72,.13-.45,0-.86-.12-1.22-.35-.36-.23-.65-.55-.86-.96-.21-.41-.32-.87-.32-1.39s.11-1,.32-1.4c.21-.4,.49-.72,.85-.95,.36-.23,.75-.34,1.19-.34,.28,0,.54,.05,.78,.14,.24,.09,.45,.21,.62,.35,.18,.14,.31,.3,.41,.46s.15,.31,.15,.46l-.3,.03v-.9c0-.14,.05-.26,.14-.35,.09-.1,.21-.15,.35-.15Zm-2.01,4.45c.31,0,.58-.08,.82-.24,.24-.16,.42-.37,.55-.64,.13-.27,.2-.58,.2-.91s-.07-.64-.2-.91c-.13-.27-.32-.49-.55-.64s-.51-.23-.82-.23-.57,.08-.8,.23c-.23,.15-.42,.37-.55,.63-.13,.27-.2,.57-.2,.92s.07,.64,.2,.91c.13,.27,.32,.49,.55,.64,.23,.16,.5,.24,.8,.24Z"/><path class="d" d="M36.85,106.16c.19,0,.36,.04,.51,.11,.14,.07,.26,.18,.36,.31s.17,.28,.21,.44c.05,.17,.07,.34,.07,.52,0,.25-.04,.48-.12,.69-.08,.21-.21,.38-.38,.5-.17,.12-.38,.19-.65,.19h-1s-.06-.01-.08-.04c-.02-.02-.03-.05-.03-.08v-2.52s.01-.06,.03-.08,.05-.04,.08-.04h1Zm-.04,2.52c.22,0,.4-.05,.54-.15,.14-.1,.24-.24,.3-.42,.06-.17,.1-.37,.1-.58,0-.15-.02-.29-.05-.43s-.09-.26-.17-.37c-.08-.11-.17-.19-.29-.25-.12-.06-.26-.09-.43-.09h-.86l.03-.03v2.36l-.02-.04h.86Z"/><path class="d" d="M39.44,108.95c-.2,0-.38-.04-.54-.13-.16-.09-.28-.21-.36-.36-.09-.15-.13-.34-.13-.54,0-.22,.04-.41,.13-.57,.09-.16,.2-.28,.34-.36,.14-.09,.29-.13,.45-.13,.12,0,.23,.02,.34,.06,.11,.04,.21,.1,.29,.18s.15,.18,.21,.29c.05,.12,.08,.25,.08,.4,0,.03-.02,.06-.04,.08-.02,.02-.05,.03-.08,.03h-1.58l-.05-.21h1.55l-.05,.05v-.08c-.01-.12-.05-.23-.12-.31-.07-.09-.15-.15-.25-.2-.1-.05-.2-.07-.3-.07-.08,0-.16,.02-.24,.05-.08,.03-.16,.08-.22,.15-.07,.07-.12,.15-.16,.26-.04,.1-.06,.23-.06,.37,0,.15,.03,.29,.09,.42,.06,.13,.15,.23,.27,.3,.12,.07,.26,.11,.43,.11,.09,0,.17-.01,.25-.04,.07-.03,.14-.06,.19-.1,.06-.04,.1-.09,.14-.14,.03-.02,.06-.04,.08-.04,.03,0,.05,.01,.07,.03,.02,.02,.03,.04,.03,.07,0,.03-.01,.06-.04,.08-.08,.09-.18,.18-.31,.25s-.26,.1-.41,.1Z"/><path class="d" d="M40.64,108.6s-.03-.06-.03-.09c0-.03,.02-.05,.05-.07,.02-.02,.04-.03,.07-.02,.03,0,.05,.02,.08,.04,.07,.09,.16,.17,.26,.22s.22,.08,.36,.08c.07,0,.15-.01,.22-.04s.13-.06,.18-.11c.05-.05,.07-.12,.07-.19s-.02-.15-.07-.19c-.05-.05-.11-.09-.18-.12-.08-.03-.16-.06-.24-.08-.09-.02-.18-.05-.26-.08-.08-.03-.16-.07-.22-.11s-.12-.1-.16-.17c-.04-.07-.06-.15-.06-.24,0-.11,.03-.21,.09-.29,.06-.08,.14-.15,.25-.2,.1-.05,.22-.07,.35-.07,.07,0,.14,0,.22,.03s.15,.05,.22,.08c.07,.04,.14,.09,.2,.16,.02,.02,.04,.05,.04,.08s-.01,.06-.04,.08c-.02,.02-.05,.02-.07,.02s-.05-.01-.07-.03c-.06-.07-.14-.12-.22-.16s-.18-.05-.28-.05c-.08,0-.15,.01-.21,.04-.07,.02-.12,.06-.17,.11-.04,.05-.07,.12-.07,.2,0,.08,.03,.14,.08,.19,.05,.05,.11,.09,.19,.12,.08,.03,.17,.06,.27,.09,.08,.02,.17,.05,.24,.07,.08,.03,.15,.06,.21,.11,.06,.04,.11,.1,.14,.16,.04,.07,.05,.15,.05,.25,0,.12-.03,.21-.1,.3-.06,.08-.15,.15-.26,.19-.11,.04-.23,.07-.36,.07-.14,0-.28-.03-.41-.08-.13-.06-.25-.15-.35-.28Z"/><path class="d" d="M42.71,106.6c-.05,0-.1-.01-.12-.04-.03-.02-.04-.06-.04-.11v-.04s.02-.08,.04-.11c.03-.02,.07-.04,.12-.04s.09,.01,.12,.04c.03,.02,.04,.06,.04,.11v.04s-.01,.08-.04,.11c-.03,.02-.07,.04-.12,.04Zm.12,2.19s-.01,.06-.04,.08c-.02,.02-.05,.04-.08,.04-.04,0-.07-.01-.09-.04-.02-.02-.03-.05-.03-.08v-1.81s.01-.06,.03-.08c.02-.02,.05-.04,.08-.04s.06,.01,.08,.04c.02,.02,.03,.05,.03,.08v1.81Z"/><path class="d" d="M44.29,106.85c.12,0,.22,.02,.32,.06,.1,.04,.19,.09,.26,.16,.08,.06,.13,.13,.17,.21,.04,.07,.06,.14,.06,.21l-.06-.09v-.37s.01-.06,.03-.09,.05-.04,.08-.04c.04,0,.07,.01,.09,.04,.02,.02,.03,.05,.03,.09v1.71c0,.21-.04,.38-.13,.53-.09,.14-.2,.25-.35,.33-.15,.07-.32,.11-.51,.11-.09,0-.19-.01-.29-.04-.1-.02-.19-.05-.26-.09-.07-.04-.11-.08-.12-.11-.02-.02-.03-.05-.03-.07,0-.02,.01-.04,.03-.06,.02-.02,.05-.02,.08,0,.03,.01,.07,.03,.13,.06l.1,.04s.1,.03,.16,.04,.13,.02,.19,.02c.23,0,.42-.07,.55-.2,.13-.14,.2-.31,.2-.53v-.38h.04c-.02,.1-.06,.19-.12,.26-.06,.07-.12,.13-.19,.18-.07,.05-.15,.09-.24,.11-.08,.02-.17,.04-.25,.04-.18,0-.34-.05-.49-.14-.15-.09-.26-.22-.34-.37-.08-.16-.13-.34-.13-.54s.04-.38,.13-.54,.2-.28,.34-.37c.14-.09,.31-.14,.49-.14Zm.03,.22c-.14,0-.27,.04-.39,.11s-.2,.17-.27,.29-.1,.27-.1,.42,.03,.3,.1,.43c.06,.13,.15,.23,.27,.3,.11,.07,.24,.11,.39,.11s.27-.04,.38-.11c.11-.07,.2-.17,.27-.29,.07-.12,.1-.27,.1-.43s-.03-.31-.1-.43c-.07-.12-.16-.22-.27-.29-.11-.07-.24-.1-.38-.1Z"/><path class="d" d="M46.85,106.85c.17,0,.31,.03,.42,.1,.1,.07,.18,.16,.22,.28s.07,.25,.07,.4v1.16s-.01,.06-.04,.08c-.02,.02-.05,.04-.08,.04-.04,0-.07-.01-.09-.04-.02-.02-.03-.05-.03-.08v-1.15c0-.1-.02-.2-.05-.29-.03-.09-.09-.16-.17-.21-.08-.05-.18-.08-.3-.08-.11,0-.22,.03-.32,.08-.1,.05-.18,.12-.25,.21-.06,.09-.09,.18-.09,.29v1.15s-.01,.06-.04,.08c-.02,.02-.05,.04-.08,.04-.04,0-.07-.01-.09-.04-.02-.02-.03-.05-.03-.08v-1.76s.01-.06,.04-.08c.02-.02,.05-.04,.09-.04s.06,.01,.08,.04c.02,.02,.03,.05,.03,.08v.33l-.09,.14c0-.08,.03-.16,.08-.24,.05-.08,.11-.15,.19-.21s.16-.11,.25-.15c.09-.04,.19-.05,.28-.05Z"/><path class="d" d="M48.07,108.6s-.03-.06-.03-.09c0-.03,.02-.05,.05-.07,.02-.02,.04-.03,.07-.02,.03,0,.05,.02,.08,.04,.07,.09,.16,.17,.26,.22s.22,.08,.36,.08c.07,0,.15-.01,.22-.04s.13-.06,.18-.11c.05-.05,.07-.12,.07-.19s-.02-.15-.07-.19c-.05-.05-.11-.09-.18-.12-.08-.03-.16-.06-.24-.08-.09-.02-.18-.05-.26-.08-.08-.03-.16-.07-.22-.11s-.12-.1-.16-.17c-.04-.07-.06-.15-.06-.24,0-.11,.03-.21,.09-.29,.06-.08,.14-.15,.25-.2,.1-.05,.22-.07,.35-.07,.07,0,.14,0,.22,.03s.15,.05,.22,.08c.07,.04,.14,.09,.2,.16,.02,.02,.04,.05,.04,.08s-.01,.06-.04,.08c-.02,.02-.05,.02-.07,.02s-.05-.01-.07-.03c-.06-.07-.14-.12-.22-.16s-.18-.05-.28-.05c-.08,0-.15,.01-.21,.04-.07,.02-.12,.06-.17,.11-.04,.05-.07,.12-.07,.2,0,.08,.03,.14,.08,.19,.05,.05,.11,.09,.19,.12,.08,.03,.17,.06,.27,.09,.08,.02,.17,.05,.24,.07,.08,.03,.15,.06,.21,.11,.06,.04,.11,.1,.14,.16,.04,.07,.05,.15,.05,.25,0,.12-.03,.21-.1,.3-.06,.08-.15,.15-.26,.19-.11,.04-.23,.07-.36,.07-.14,0-.28-.03-.41-.08-.13-.06-.25-.15-.35-.28Z"/></g></g></g></g></svg>