<?xml version="1.0" encoding="UTF-8"?><svg xmlns="http://www.w3.org/2000/svg" viewBox="0 0 135.05 135.05"><defs><style>.d{stroke-linejoin:round;}.d,.e,.f,.g{stroke:#fff;stroke-linecap:round;}.d,.f,.g{fill:none;}.h{fill:#f6f6f6;}.i,.e{fill:#fff;}.j{fill:#c6e1cc;}.k{fill:#c5e1cb;}.e,.f,.g{stroke-miterlimit:10;}.f{stroke-width:2px;}.g{stroke-width:.75px;}</style></defs><g id="a"/><g id="b"><g id="c"><circle class="j" cx="67.52" cy="67.52" r="67.52"/><g><g><g><path class="d" d="M81.04,65.48s4.14-.52,7.86,3.57"/><path class="h" d="M80.56,74.08s1.31-.12,2.19,.98l-2.17,1.89-.02-2.87Z"/><path class="i" d="M97.12,31.84c3.75,0,5.86,2.23,6.57,3.17l-15.11,33.65-7.01,6.1-.06-9.31,15.09-33.59c.18,0,.35-.01,.52-.01m0-1c-.38,0-.78,.02-1.19,.07l-15.42,34.33,.07,11.71,8.82-7.67,15.43-34.37s-2.4-4.07-7.72-4.07h0Z"/><path class="i" d="M96.62,31.82l1.73,.19-14.79,32.94-1.71-.22,14.78-32.91m-.46-.8l-15.42,34.33,3.27,.42,15.45-34.39-3.29-.36h0Z"/><g><rect class="i" x="74.82" y="47.84" width="36.95" height="2.6" transform="translate(10.25 114.11) rotate(-65.82)"/><path class="i" d="M99.86,32.25l1.69,.76-14.83,33.02-1.69-.76,14.83-33.02m-.38-.99l-15.45,34.39,3.06,1.37,15.45-34.39-3.06-1.37h0Z"/></g></g><path class="i" d="M102.6,33.92l1.32,1.19-15.01,32.81-1.12-1.04,14.8-32.97m-.26-1.24l-15.45,34.39,2.27,2.11,15.67-34.26-2.5-2.24h0Z"/></g><rect class="f" x="27.77" y="43.46" width="85.12" height="49.39" rx="11.13" ry="11.13"/><path class="g" d="M52.63,67.02c-2.24,5.5,8.06,10.06,14.8,6.94"/><path class="g" d="M57.09,77.74c-2.66,5.48,11.31,1.52,24.24,0"/><circle class="e" cx="66.41" cy="64.63" r="5.44"/><polygon class="k" points="91.85 42.46 90.95 44.46 92.74 44.46 93.65 42.46 91.85 42.46"/><polygon class="k" points="97.85 44.51 98.77 42.44 100.36 42.42 99.43 44.49 97.85 44.51"/></g></g></g></svg>