<?xml version="1.0" encoding="UTF-8"?><svg xmlns="http://www.w3.org/2000/svg" viewBox="0 0 40.73 56.89"><defs><style>.d{fill:#6a6565;}.e{fill:#e9e5dd;}.f{fill:#efefef;}.g{fill:#757272;}</style></defs><g id="a"/><g id="b"><g id="c"><g><ellipse class="d" cx="14.18" cy="11.98" rx="4.45" ry="11.98"/><ellipse class="d" cx="25.63" cy="11.98" rx="4.45" ry="11.98"/><ellipse class="g" cx="13.51" cy="11.98" rx="3.78" ry="10.17"/><ellipse class="g" cx="26.3" cy="11.98" rx="3.78" ry="10.17"/><ellipse class="d" cx="20.36" cy="38.69" rx="20.36" ry="18.2"/><path class="g" d="M37.7,42.61c0,8.58-7.72,12.81-17.24,12.81S3.22,51.19,3.22,42.61s7.72-15.53,17.24-15.53,17.24,6.95,17.24,15.53Z"/><path class="e" d="M26.32,49.21c.46-1.37-.16-2.81-1.37-3.21-.81-.27-1.68-.01-2.31,.59-.28-.49-.71-.88-1.27-1.06-1.3-.43-2.75,.4-3.24,1.86-.11,.31-.15,.63-.16,.94-.85,.2-1.61,.88-1.94,1.85-.47,1.41,.16,2.9,1.42,3.32,.29,.1,.59,.13,.89,.1,.23,.55,.65,.98,1.22,1.17,1.12,.37,2.37-.34,2.79-1.6,.03-.08,.04-.16,.06-.25,.06,.03,.12,.07,.19,.09,1.01,.34,2.14-.31,2.52-1.45,.1-.31,.14-.62,.12-.91,.48-.32,.87-.82,1.08-1.44Z"/><path class="f" d="M26.13,49.79c.38-1.14-.13-2.34-1.14-2.67-.67-.23-1.4-.01-1.92,.49-.23-.41-.59-.73-1.05-.88-1.08-.36-2.29,.33-2.69,1.55-.09,.26-.13,.53-.13,.78-.71,.16-1.34,.73-1.61,1.54-.39,1.18,.13,2.42,1.18,2.77,.24,.08,.49,.11,.74,.08,.19,.45,.54,.82,1.01,.97,.93,.31,1.97-.28,2.32-1.33,.02-.07,.03-.14,.05-.21,.05,.02,.1,.05,.16,.07,.84,.28,1.78-.26,2.1-1.21,.09-.26,.11-.51,.1-.76,.4-.27,.73-.68,.9-1.2Z"/></g></g></g></svg>